<svg width="131" height="246" viewBox="0 0 131 246" fill="none" xmlns="http://www.w3.org/2000/svg">
<g id="freepik--Device--inject-2">
<path id="Vector" d="M119.286 0.612396H11.0758C9.62461 0.625529 8.19021 0.924489 6.85459 1.49219C5.51898 2.05989 4.30832 2.88521 3.29179 3.92098C2.27526 4.95676 1.47279 6.18268 0.930238 7.52871C0.387683 8.87474 0.115677 10.3145 0.129762 11.7657V234.524C0.104653 237.453 1.24323 240.273 3.2955 242.365C5.34777 244.456 8.146 245.647 11.0758 245.677H119.286C122.218 245.649 125.018 244.458 127.073 242.367C129.128 240.276 130.268 237.455 130.245 234.524V11.7657C130.258 10.3137 129.985 8.87327 129.442 7.5268C128.898 6.18032 128.094 4.95417 127.077 3.9184C126.059 2.88263 124.847 2.05754 123.511 1.49028C122.174 0.923021 120.738 0.624711 119.286 0.612396ZM123.4 227.634C123.4 233.5 119.004 238.241 113.591 238.241H16.7843C11.3584 238.241 6.96241 233.5 6.96241 227.634V20.206C6.96241 8.274 11.3584 7.646 16.7843 7.646H36.177C37.3074 7.646 38.2305 8.902 38.2305 10.516V11.2005C38.2305 14.9182 40.2652 14.9308 42.7584 14.9308H87.6039C90.1159 14.9308 92.1506 14.9308 92.1506 11.2005V10.5474C92.1506 8.95852 93.0612 7.6774 94.2042 7.6774H113.591C119.01 7.6774 123.4 9.26624 123.4 20.2374V227.634Z" fill="#263238"/>
<path id="Vector_2" d="M123.406 20.206V227.634C123.406 233.5 119.01 238.241 113.597 238.241H16.7906C11.3647 238.241 6.96869 233.5 6.96869 227.634V20.206C6.96869 8.274 11.3647 7.646 16.7906 7.646H36.1833C37.3137 7.646 38.2368 8.902 38.2368 10.516V11.2005C38.2368 14.9182 40.2715 14.9308 42.7647 14.9308H87.6102C90.1222 14.9308 92.1569 14.9308 92.1569 11.2005V10.5474C92.1569 8.95852 93.0675 7.6774 94.2104 7.6774H113.597C119.016 7.6774 123.406 9.26624 123.406 20.206Z" fill="white"/>
<path id="Vector_3" d="M123.406 20.2123V39.0523H6.96869V20.2123C6.96869 8.28028 11.3647 7.65228 16.7906 7.65228H36.1833C37.3137 7.65228 38.2368 8.90828 38.2368 10.5222V11.2068C38.2368 14.9245 40.2715 14.9371 42.7647 14.9371H87.6102C90.1222 14.9371 92.1569 14.9371 92.1569 11.2068V10.5536C92.1569 8.96479 93.0675 7.68367 94.2104 7.68367H113.597C119.016 7.68367 123.406 9.27252 123.406 20.2123Z" fill="#EB9C64"/>
<path id="Vector_4" d="M71.301 10.1392H59.0676C58.8671 10.1375 58.6755 10.0567 58.5343 9.91438C58.3932 9.77206 58.314 9.57972 58.314 9.37927C58.314 9.28031 58.3335 9.18231 58.3713 9.09088C58.4092 8.99945 58.4647 8.91637 58.5347 8.8464C58.6047 8.77642 58.6877 8.72091 58.7792 8.68304C58.8706 8.64517 58.9686 8.62567 59.0676 8.62567H71.301C71.4 8.62567 71.498 8.64517 71.5894 8.68304C71.6808 8.72091 71.7639 8.77642 71.8339 8.8464C71.9039 8.91637 71.9594 8.99945 71.9972 9.09088C72.0351 9.18231 72.0546 9.28031 72.0546 9.37927C72.0554 9.47877 72.0365 9.57743 71.999 9.66959C71.9615 9.76175 71.9062 9.84557 71.8361 9.91621C71.766 9.98686 71.6827 10.0429 71.5909 10.0812C71.499 10.1195 71.4005 10.1392 71.301 10.1392Z" fill="white"/>
<path id="Vector_5" d="M24.6657 25.4184H14.5612V31.824H24.6657V25.4184Z" fill="white"/>
<path id="Vector_6" d="M24.672 25.4184C24.2638 25.8078 23.8493 26.1846 23.416 26.5676L22.16 27.6918L20.904 28.8473L20.8663 28.885L19.648 29.896L19.5915 29.94L19.535 29.896L18.392 28.8787H18.3543C17.9147 28.4956 17.4751 28.1125 17.0418 27.7232L15.7858 26.599C15.3776 26.216 14.9631 25.8392 14.5298 25.4498C14.9631 25.7889 15.3902 26.1343 15.7858 26.4797C16.1815 26.8251 16.6399 27.1768 17.0418 27.5348C17.4437 27.8927 17.9901 28.326 18.4611 28.728L19.5161 29.6323L20.5774 28.728L21.9904 27.5348L23.2464 26.486L24.672 25.4184Z" fill="#EB9C64"/>
<path id="Vector_7" d="M18.5616 28.841L18.3983 28.9729C18.1471 29.1864 17.8833 29.3936 17.6196 29.6009C17.3558 29.8081 16.9916 30.0782 16.6399 30.3105C16.2882 30.5429 15.9742 30.769 15.6351 30.9888C15.296 31.2086 14.9443 31.4221 14.5926 31.6168C14.894 31.3467 15.2206 31.0955 15.5346 30.8506C15.8486 30.6057 16.1626 30.3733 16.5206 30.141C16.8785 29.9086 17.1862 29.6825 17.5253 29.4627C17.8645 29.2429 18.078 29.1173 18.3606 28.954C18.4234 28.9147 18.4884 28.8791 18.5553 28.8473L18.5616 28.841Z" fill="#EB9C64"/>
<path id="Vector_8" d="M24.672 31.623C24.314 31.4284 23.9686 31.2148 23.6295 30.995C23.2904 30.7752 22.9513 30.5492 22.6184 30.3168C22.2856 30.0844 21.959 29.8521 21.6388 29.6072C21.3185 29.3622 21.1175 29.2052 20.8663 28.9792L20.703 28.8473L20.8977 28.9603C21.1824 29.1236 21.4587 29.2932 21.7267 29.469C22.0721 29.6888 22.4049 29.9149 22.7378 30.1472C23.0706 30.3796 23.3972 30.612 23.7174 30.8569C24.0377 31.1018 24.3329 31.353 24.672 31.623Z" fill="#EB9C64"/>
<path id="Vector_9" d="M26.8323 25.4184C26.8323 25.8472 26.7051 26.2663 26.4667 26.6227C26.2284 26.9792 25.8896 27.2569 25.4934 27.4207C25.0971 27.5845 24.6612 27.627 24.2407 27.5429C23.8203 27.4588 23.4342 27.2518 23.1315 26.9482C22.8287 26.6445 22.6229 26.2579 22.54 25.8372C22.4571 25.4165 22.5009 24.9807 22.6658 24.5849C22.8308 24.1891 23.1095 23.8512 23.4666 23.6139C23.8237 23.3766 24.2432 23.2506 24.672 23.2518C25.2455 23.2535 25.795 23.4825 26.2 23.8886C26.6049 24.2947 26.8323 24.8449 26.8323 25.4184Z" fill="#455A64"/>
<path id="Vector_10" d="M25.3816 25.8517C25.38 25.8973 25.3608 25.9404 25.328 25.972C25.2952 26.0036 25.2514 26.0213 25.2058 26.0213V26.2599C25.1981 26.3001 25.1767 26.3363 25.1451 26.3624C25.1136 26.3884 25.074 26.4027 25.0331 26.4027C24.9922 26.4027 24.9526 26.3884 24.9211 26.3624C24.8895 26.3363 24.8681 26.3001 24.8604 26.2599V26.0213H23.8807C23.8613 26.0229 23.8417 26.0204 23.8233 26.0139C23.8049 26.0074 23.7881 25.9971 23.774 25.9836C23.7576 25.9683 23.7446 25.9498 23.7356 25.9293C23.7267 25.9088 23.7221 25.8867 23.7221 25.8643C23.7221 25.8419 23.7267 25.8198 23.7356 25.7992C23.7446 25.7787 23.7576 25.7602 23.774 25.745L24.8667 24.288H24.9169H25.0174V25.544C25.0582 25.4957 25.1165 25.4656 25.1795 25.4603C25.2425 25.455 25.3051 25.4749 25.3534 25.5157C25.4017 25.5565 25.4318 25.6149 25.4371 25.6779C25.4424 25.7409 25.4224 25.8034 25.3816 25.8517ZM24.829 24.9097L24.201 25.6822H24.829V24.9097Z" fill="white"/>
<g id="freepik--u5Zjqx--inject-2">
<path id="Vector_11" d="M32.836 12.155L32.6476 12.3434L32.5408 12.4502C32.0617 11.972 31.4123 11.7034 30.7353 11.7034C30.0584 11.7034 29.409 11.972 28.9298 12.4502L28.8294 12.3434C28.7666 12.2806 28.7038 12.2241 28.6472 12.1613L28.8859 11.9478C29.0529 11.8103 29.2364 11.6943 29.4322 11.6024C29.6621 11.4864 29.9074 11.4039 30.1607 11.3575C30.28 11.3575 30.3994 11.3575 30.5187 11.3072H30.839H31.0839C31.3119 11.3326 31.5357 11.3875 31.7496 11.4705C31.9059 11.5267 32.0571 11.596 32.2017 11.6778C32.3539 11.7667 32.4988 11.8675 32.635 11.9792L32.8297 12.1613L32.836 12.155Z" fill="white"/>
<path id="Vector_12" d="M29.5202 13.0405L29.225 12.7454C29.5424 12.4064 29.9652 12.1851 30.4245 12.1174C30.7551 12.071 31.0921 12.1037 31.4076 12.2129C31.7231 12.3221 32.0082 12.5046 32.2394 12.7454L31.9443 13.0405C31.6218 12.7213 31.186 12.5429 30.7322 12.5444C30.5074 12.5426 30.2845 12.5855 30.0764 12.6707C29.8683 12.7559 29.6792 12.8816 29.5202 13.0405Z" fill="white"/>
<path id="Vector_13" d="M31.6491 13.3357C31.5486 13.4299 31.4482 13.5304 31.354 13.6308C31.2722 13.5476 31.1744 13.4818 31.0664 13.4376C30.9585 13.3933 30.8426 13.3714 30.726 13.3734C30.6092 13.3707 30.4931 13.3922 30.3851 13.4365C30.277 13.4808 30.1793 13.547 30.098 13.6308L29.8028 13.3357C29.9232 13.213 30.0669 13.1156 30.2254 13.0491C30.3839 12.9826 30.5541 12.9483 30.726 12.9483C30.8979 12.9483 31.068 12.9826 31.2265 13.0491C31.385 13.1156 31.5287 13.213 31.6491 13.3357Z" fill="white"/>
<path id="Vector_14" d="M30.9959 13.8946C30.9972 13.9485 30.9822 14.0016 30.9531 14.0469C30.9239 14.0923 30.8818 14.1279 30.8322 14.1491C30.7826 14.1703 30.7278 14.1762 30.6748 14.166C30.6219 14.1557 30.5732 14.1299 30.535 14.0917C30.4969 14.0536 30.471 14.0049 30.4608 13.952C30.4506 13.899 30.4565 13.8442 30.4777 13.7946C30.4989 13.745 30.5345 13.7029 30.5798 13.6737C30.6252 13.6445 30.6783 13.6296 30.7322 13.6308C30.8021 13.6308 30.8692 13.6586 30.9187 13.7081C30.9682 13.7576 30.9959 13.8246 30.9959 13.8946Z" fill="white"/>
</g>
<path id="Vector_15" d="M14.5612 12.7202C14.5612 12.5675 14.6065 12.4181 14.6914 12.2911C14.7763 12.1641 14.8969 12.0651 15.038 12.0066C15.1792 11.9481 15.3345 11.9328 15.4843 11.9626C15.6342 11.9924 15.7718 12.066 15.8798 12.174C15.9879 12.2821 16.0614 12.4197 16.0912 12.5695C16.121 12.7194 16.1057 12.8747 16.0473 13.0158C15.9888 13.157 15.8898 13.2776 15.7628 13.3625C15.6358 13.4474 15.4864 13.4927 15.3336 13.4927C15.2322 13.4927 15.1317 13.4727 15.038 13.4339C14.9443 13.3951 14.8592 13.3382 14.7874 13.2664C14.7157 13.1947 14.6588 13.1095 14.62 13.0158C14.5812 12.9221 14.5612 12.8217 14.5612 12.7202Z" fill="white"/>
<path id="Vector_16" d="M16.9916 12.7202C16.9916 12.5675 17.0369 12.4181 17.1218 12.2911C17.2066 12.1641 17.3273 12.0651 17.4684 12.0066C17.6096 11.9481 17.7649 11.9328 17.9147 11.9626C18.0645 11.9924 18.2022 12.066 18.3102 12.174C18.4182 12.2821 18.4918 12.4197 18.5216 12.5695C18.5514 12.7194 18.5361 12.8747 18.4777 13.0158C18.4192 13.157 18.3202 13.2776 18.1932 13.3625C18.0661 13.4474 17.9168 13.4927 17.764 13.4927C17.5592 13.4927 17.3627 13.4113 17.2178 13.2664C17.073 13.1216 16.9916 12.9251 16.9916 12.7202Z" fill="white"/>
<path id="Vector_17" d="M19.4219 12.7202C19.4219 12.5675 19.4672 12.4181 19.5521 12.2911C19.637 12.1641 19.7576 12.0651 19.8988 12.0066C20.0399 11.9481 20.1952 11.9328 20.3451 11.9626C20.4949 11.9924 20.6325 12.066 20.7406 12.174C20.8486 12.2821 20.9222 12.4197 20.952 12.5695C20.9818 12.7194 20.9665 12.8747 20.908 13.0158C20.8496 13.157 20.7505 13.2776 20.6235 13.3625C20.4965 13.4474 20.3471 13.4927 20.1944 13.4927C19.9895 13.4927 19.793 13.4113 19.6482 13.2664C19.5033 13.1216 19.4219 12.9251 19.4219 12.7202Z" fill="white"/>
<path id="Vector_18" d="M21.8523 12.7202C21.8523 12.5675 21.8976 12.4181 21.9824 12.2911C22.0673 12.1641 22.188 12.0651 22.3291 12.0066C22.4703 11.9481 22.6256 11.9328 22.7754 11.9626C22.9252 11.9924 23.0629 12.066 23.1709 12.174C23.2789 12.2821 23.3525 12.4197 23.3823 12.5695C23.4121 12.7194 23.3968 12.8747 23.3384 13.0158C23.2799 13.157 23.1809 13.2776 23.0539 13.3625C22.9268 13.4474 22.7775 13.4927 22.6247 13.4927C22.5233 13.4927 22.4228 13.4727 22.3291 13.4339C22.2354 13.3951 22.1502 13.3382 22.0785 13.2664C22.0068 13.1947 21.9499 13.1095 21.9111 13.0158C21.8722 12.9221 21.8523 12.8217 21.8523 12.7202Z" fill="white"/>
<path id="Vector_19" d="M24.2827 12.7202C24.2827 12.5675 24.328 12.4181 24.4128 12.2911C24.4977 12.1641 24.6183 12.0651 24.7595 12.0066C24.9006 11.9481 25.0559 11.9328 25.2058 11.9626C25.3556 11.9924 25.4933 12.066 25.6013 12.174C25.7093 12.2821 25.7829 12.4197 25.8127 12.5695C25.8425 12.7194 25.8272 12.8747 25.7687 13.0158C25.7103 13.157 25.6113 13.2776 25.4842 13.3625C25.3572 13.4474 25.2079 13.4927 25.0551 13.4927C24.9537 13.4927 24.8532 13.4727 24.7595 13.4339C24.6658 13.3951 24.5806 13.3382 24.5089 13.2664C24.4372 13.1947 24.3803 13.1095 24.3415 13.0158C24.3026 12.9221 24.2827 12.8217 24.2827 12.7202Z" fill="white"/>
<path id="Vector_20" d="M114.664 14.4096H108.384V11.4956H114.664V14.4096ZM108.705 14.0893H114.357V11.8159H108.705V14.0893Z" fill="white"/>
<path id="Vector_21" d="M112.956 11.9918H108.906V13.9134H112.956V11.9918Z" fill="white"/>
<path id="Vector_22" d="M115.23 12.1739H114.671V13.7313H115.23V12.1739Z" fill="white"/>
<path id="Vector_23" d="M55.1677 26.6618C55.1668 26.6121 55.176 26.5627 55.1946 26.5166C55.2132 26.4705 55.241 26.4287 55.2761 26.3935C55.3113 26.3584 55.3532 26.3306 55.3993 26.312C55.4454 26.2934 55.4947 26.2842 55.5445 26.285C55.5945 26.2842 55.6441 26.2933 55.6906 26.3119C55.737 26.3305 55.7793 26.3581 55.815 26.3932C55.8506 26.4282 55.8789 26.4701 55.8983 26.5162C55.9176 26.5623 55.9275 26.6118 55.9275 26.6618V30.6873C55.9275 30.7373 55.9176 30.7869 55.8983 30.833C55.8789 30.8791 55.8506 30.9209 55.815 30.956C55.7793 30.9911 55.737 31.0187 55.6906 31.0373C55.6441 31.0558 55.5945 31.065 55.5445 31.0641C55.4947 31.065 55.4454 31.0558 55.3993 31.0372C55.3532 31.0185 55.3113 30.9908 55.2761 30.9557C55.241 30.9205 55.2132 30.8786 55.1946 30.8325C55.176 30.7864 55.1668 30.737 55.1677 30.6873V26.6618Z" fill="white"/>
<path id="Vector_24" d="M57.956 30.6873C57.956 30.7862 57.9172 30.8811 57.8479 30.9516C57.7786 31.022 57.6844 31.0625 57.5855 31.0641C57.5363 31.0641 57.4876 31.0543 57.4423 31.0353C57.3969 31.0163 57.3558 30.9885 57.3213 30.9534C57.2868 30.9183 57.2596 30.8767 57.2414 30.831C57.2231 30.7854 57.2142 30.7365 57.215 30.6873V26.7184C57.2106 26.6581 57.2216 26.5977 57.2468 26.5428C57.2721 26.4879 57.3108 26.4402 57.3594 26.4044C57.4402 26.3486 57.5393 26.3259 57.6363 26.3411C57.7333 26.3563 57.8208 26.4082 57.8807 26.486L60.085 29.5381V26.7184C60.0866 26.6212 60.1264 26.5285 60.1957 26.4604C60.265 26.3923 60.3583 26.3541 60.4555 26.3541C60.5533 26.3541 60.6472 26.392 60.7176 26.46C60.7879 26.528 60.829 26.6206 60.8323 26.7184V30.6873C60.8323 30.7872 60.7926 30.8831 60.7219 30.9538C60.6512 31.0244 60.5554 31.0641 60.4555 31.0641C60.4013 31.0624 60.3481 31.0492 60.2993 31.0254C60.2506 31.0016 60.2075 30.9677 60.1729 30.926V30.8883L57.956 27.855V30.6873Z" fill="white"/>
<path id="Vector_25" d="M62.4713 30.6873V26.6618C62.4713 26.5619 62.511 26.4661 62.5817 26.3954C62.6523 26.3247 62.7482 26.285 62.8481 26.285H63.8152C64.1589 26.285 64.4886 26.4211 64.7322 26.6636C64.9758 26.906 65.1135 27.235 65.1152 27.5787C65.1171 27.8605 65.0242 28.1348 64.8514 28.3574C65.1214 28.5249 65.3296 28.7757 65.4444 29.0719C65.5593 29.3682 65.5746 29.6937 65.488 29.9994C65.4015 30.3051 65.2178 30.5743 64.9648 30.7664C64.7117 30.9585 64.403 31.063 64.0853 31.0641H62.8732C62.8217 31.0676 62.77 31.0604 62.7213 31.043C62.6726 31.0256 62.6281 30.9984 62.5904 30.963C62.5527 30.9277 62.5227 30.885 62.5022 30.8376C62.4817 30.7901 62.4712 30.739 62.4713 30.6873ZM63.2312 28.1376H63.8152C63.9607 28.1343 64.099 28.0738 64.2001 27.9692C64.3012 27.8645 64.357 27.7242 64.3553 27.5787C64.3553 27.5081 64.3413 27.4382 64.3141 27.373C64.2869 27.3078 64.247 27.2487 64.1968 27.199C64.1465 27.1494 64.0869 27.1102 64.0214 27.0837C63.956 27.0573 63.8859 27.0441 63.8152 27.0449H63.2312V28.1376ZM63.2312 30.3042H64.0853C64.2612 30.2876 64.4245 30.206 64.5434 30.0754C64.6623 29.9447 64.7282 29.7744 64.7282 29.5977C64.7282 29.4211 64.6623 29.2508 64.5434 29.1201C64.4245 28.9894 64.2612 28.9078 64.0853 28.8912H63.2312V30.3042Z" fill="white"/>
<path id="Vector_26" d="M70.2962 26.8754C70.7397 27.3422 70.987 27.9616 70.987 28.6055C70.987 29.2494 70.7397 29.8688 70.2962 30.3356C70.0883 30.5623 69.8362 30.7439 69.5553 30.8692C69.2745 30.9945 68.9709 31.0608 68.6634 31.0641C68.3502 31.0619 68.0407 30.9962 67.7535 30.871C67.4664 30.7458 67.2077 30.5637 66.9929 30.3356C66.5564 29.8652 66.3138 29.2472 66.3138 28.6055C66.3138 27.9638 66.5564 27.3457 66.9929 26.8754C67.2089 26.6507 67.4684 26.4725 67.7557 26.3516C68.0429 26.2306 68.3517 26.1695 68.6634 26.172C68.9692 26.171 69.272 26.2329 69.5529 26.3539C69.8338 26.4749 70.0868 26.6524 70.2962 26.8754ZM70.2083 28.6024C70.2082 28.1605 70.0424 27.7347 69.7435 27.4092C69.6073 27.2575 69.4408 27.1361 69.2548 27.0528C69.0687 26.9695 68.8672 26.9261 68.6634 26.9256C68.4556 26.9246 68.2499 26.9671 68.0595 27.0504C67.8692 27.1336 67.6984 27.2559 67.5581 27.4092C67.2593 27.7347 67.0934 28.1605 67.0934 28.6024C67.0909 29.0447 67.2571 29.4714 67.5581 29.7956C67.6981 29.9497 67.8687 30.0729 68.059 30.1572C68.2493 30.2416 68.4552 30.2852 68.6634 30.2854C68.8676 30.2837 69.0693 30.2392 69.2553 30.1548C69.4414 30.0705 69.6077 29.9481 69.7435 29.7956C70.0445 29.4714 70.2107 29.0447 70.2083 28.6024Z" fill="white"/>
<path id="Vector_27" d="M75.4144 26.9319L74.1145 28.684L75.4144 30.455C75.4717 30.5352 75.4953 30.6348 75.48 30.7322C75.4648 30.8297 75.4119 30.9173 75.3328 30.9762C75.2695 31.0242 75.1924 31.0506 75.113 31.0516C75.0532 31.0499 74.9946 31.035 74.9414 31.0078C74.8882 30.9806 74.8416 30.942 74.8052 30.8946L73.656 29.312L72.5005 30.8883C72.4648 30.9349 72.4193 30.9731 72.3672 31.0002C72.3151 31.0273 72.2577 31.0427 72.1991 31.0453C72.1193 31.0463 72.0416 31.0197 71.9792 30.9699C71.8991 30.912 71.845 30.8248 71.8286 30.7273C71.8121 30.6298 71.8347 30.5297 71.8913 30.4487L73.1913 28.6777L71.8913 26.913C71.835 26.833 71.8126 26.7339 71.8291 26.6374C71.8456 26.5409 71.8995 26.4549 71.9792 26.3981C72.0176 26.3662 72.0624 26.3429 72.1105 26.3296C72.1586 26.3164 72.209 26.3135 72.2583 26.3212C72.3076 26.3289 72.3547 26.3471 72.3965 26.3744C72.4382 26.4017 72.4737 26.4376 72.5005 26.4797L73.656 28.056L74.799 26.486C74.8264 26.4437 74.8625 26.4077 74.9048 26.3804C74.9471 26.353 74.9947 26.3349 75.0445 26.3272C75.0943 26.3194 75.1451 26.3223 75.1937 26.3356C75.2423 26.3489 75.2876 26.3724 75.3265 26.4044C75.3677 26.4325 75.4029 26.4688 75.4298 26.5109C75.4566 26.553 75.4747 26.6001 75.4829 26.6494C75.4912 26.6986 75.4893 26.7491 75.4775 26.7976C75.4658 26.8462 75.4443 26.8918 75.4144 26.9319Z" fill="white"/>
<path id="Vector_28" d="M107.367 31.0264L106.576 31.6544L105.113 29.7202L104.579 29.0106C104.688 28.9677 104.792 28.9107 104.886 28.841C105.064 28.7027 105.202 28.521 105.288 28.3135L105.86 29.0608L107.367 31.0264Z" fill="white"/>
<path id="Vector_29" d="M105.81 26.4672C105.559 26.1402 105.219 25.8919 104.832 25.7515C104.444 25.6111 104.025 25.5845 103.623 25.6747C103.221 25.765 102.853 25.9684 102.562 26.2609C102.272 26.5535 102.072 26.9229 101.984 27.3257C101.897 27.7285 101.927 28.1479 102.071 28.5342C102.214 28.9206 102.465 29.2579 102.794 29.5063C103.123 29.7548 103.516 29.9039 103.926 29.9363C104.337 29.9686 104.749 29.8827 105.112 29.6888C105.219 29.6336 105.32 29.5685 105.414 29.4941C105.587 29.365 105.738 29.2079 105.86 29.0294C106.126 28.6529 106.265 28.201 106.256 27.74C106.247 27.279 106.09 26.833 105.81 26.4672ZM104.886 28.8096C104.792 28.8793 104.688 28.9363 104.579 28.9792C104.302 29.0894 103.997 29.1007 103.713 29.0109C103.43 28.9212 103.186 28.7361 103.023 28.487C102.861 28.238 102.789 27.9403 102.822 27.6446C102.854 27.3489 102.987 27.0735 103.199 26.8651C103.411 26.6567 103.689 26.5281 103.985 26.5013C104.282 26.4745 104.578 26.5511 104.824 26.7181C105.07 26.885 105.251 27.132 105.336 27.4171C105.42 27.7023 105.404 28.0079 105.288 28.2821C105.202 28.4896 105.064 28.6713 104.886 28.8096Z" fill="white"/>
<path id="Vector_30" d="M96.6282 25.7512H90.8883V31.4912H96.6282V25.7512Z" fill="white"/>
<path id="Vector_31" d="M94.0723 26.8188H93.4443V30.4298H94.0723V26.8188Z" fill="#EB9C64"/>
<path id="Vector_32" d="M91.9496 28.3072V28.9352H95.5606V28.3072H91.9496Z" fill="#EB9C64"/>
<path id="Vector_33" d="M114.664 26.1218C114.664 26.2199 114.635 26.3158 114.581 26.3974C114.526 26.479 114.449 26.5426 114.358 26.5801C114.268 26.6177 114.168 26.6275 114.072 26.6083C113.975 26.5892 113.887 26.5419 113.817 26.4726C113.748 26.4032 113.701 26.3148 113.682 26.2185C113.663 26.1223 113.672 26.0226 113.71 25.9319C113.747 25.8412 113.811 25.7638 113.893 25.7092C113.974 25.6547 114.07 25.6256 114.168 25.6256C114.233 25.6256 114.298 25.6385 114.358 25.6634C114.418 25.6883 114.473 25.7249 114.519 25.7709C114.565 25.817 114.602 25.8717 114.627 25.9319C114.652 25.9921 114.664 26.0566 114.664 26.1218Z" fill="white"/>
<path id="Vector_34" d="M114.664 28.684C114.664 28.8156 114.612 28.9418 114.519 29.0348C114.426 29.1278 114.3 29.1801 114.168 29.1801C114.037 29.1801 113.911 29.1278 113.817 29.0348C113.724 28.9418 113.672 28.8156 113.672 28.684C113.672 28.6188 113.685 28.5543 113.71 28.4941C113.735 28.4339 113.771 28.3793 113.817 28.3332C113.864 28.2871 113.918 28.2506 113.978 28.2256C114.039 28.2007 114.103 28.1879 114.168 28.1879C114.233 28.1879 114.298 28.2007 114.358 28.2256C114.418 28.2506 114.473 28.2871 114.519 28.3332C114.565 28.3793 114.602 28.4339 114.627 28.4941C114.652 28.5543 114.664 28.6188 114.664 28.684Z" fill="white"/>
<path id="Vector_35" d="M114.664 31.2714C114.664 31.3365 114.652 31.401 114.627 31.4612C114.602 31.5214 114.565 31.5761 114.519 31.6222C114.473 31.6682 114.418 31.7048 114.358 31.7297C114.298 31.7546 114.233 31.7675 114.168 31.7675C114.103 31.7675 114.039 31.7546 113.978 31.7297C113.918 31.7048 113.864 31.6682 113.817 31.6222C113.771 31.5761 113.735 31.5214 113.71 31.4612C113.685 31.401 113.672 31.3365 113.672 31.2714C113.672 31.1398 113.724 31.0136 113.817 30.9205C113.911 30.8275 114.037 30.7752 114.168 30.7752C114.3 30.7752 114.426 30.8275 114.519 30.9205C114.612 31.0136 114.664 31.1398 114.664 31.2714Z" fill="white"/>
<path id="Vector_36" d="M123.4 39.0272H6.96869V57.0068H123.4V39.0272Z" fill="#EBEBEB"/>
<path id="Vector_37" d="M25.928 51.4929C25.5632 51.7184 25.1646 51.8837 24.7473 51.9828C23.7518 52.2217 22.7028 52.0767 21.8095 51.5765C20.9162 51.0764 20.2442 50.2579 19.9276 49.2843C19.611 48.3107 19.6729 47.2535 20.1012 46.3236C20.5294 45.3937 21.2924 44.6593 22.238 44.267C23.1837 43.8746 24.2424 43.8531 25.2032 44.2068C26.164 44.5604 26.9562 45.2632 27.4218 46.175C27.8874 47.0868 27.9922 48.1406 27.7153 49.1262C27.4385 50.1119 26.8003 50.957 25.928 51.4929Z" fill="#EB9C64"/>
<path id="Vector_38" d="M24.9923 47.524C24.9923 47.7724 24.9186 48.0152 24.7806 48.2218C24.6426 48.4283 24.4464 48.5893 24.2169 48.6844C23.9874 48.7794 23.7349 48.8043 23.4912 48.7559C23.2476 48.7074 23.0238 48.5878 22.8482 48.4121C22.6725 48.2365 22.5529 48.0127 22.5044 47.769C22.456 47.5254 22.4808 47.2728 22.5759 47.0433C22.671 46.8138 22.8319 46.6177 23.0385 46.4797C23.245 46.3417 23.4879 46.268 23.7363 46.268C24.0694 46.268 24.3889 46.4003 24.6244 46.6359C24.86 46.8714 24.9923 47.1909 24.9923 47.524Z" fill="white"/>
<path id="Vector_39" d="M25.928 50.978V51.493C25.5632 51.7184 25.1646 51.8837 24.7474 51.9828C24.2178 52.1152 23.6671 52.1401 23.1277 52.056C22.5884 51.9719 22.0714 51.7804 21.6074 51.493V50.978C21.6074 50.4084 21.8336 49.8621 22.2364 49.4593C22.6392 49.0565 23.1855 48.8302 23.7551 48.8302C24.3247 48.8302 24.871 49.0565 25.2738 49.4593C25.6766 49.8621 25.9029 50.4084 25.9029 50.978H25.928Z" fill="white"/>
<path id="Vector_40" d="M49.3901 50.7205H43.9893L46.1935 48.0201L43.9893 45.3197H49.3901L51.5943 48.0201L49.3901 50.7205Z" fill="white"/>
<path id="Vector_41" d="M35.5113 45.3197L36.3905 47.097L38.3498 47.3796L36.9306 48.7674L37.2697 50.7205L35.5113 49.7974L33.7592 50.7205L34.092 48.7674L32.6727 47.3796L34.6321 47.097L35.5113 45.3197Z" fill="#EB9C64"/>
<path id="Vector_42" d="M87.3338 46.9211H55.4691V49.1191H87.3338V46.9211Z" fill="#263238"/>
<path id="Vector_43" d="M112.956 46.9211H100.465V49.1191H112.956V46.9211Z" fill="#455A64"/>
<path id="Vector_44" d="M25.928 69.504C25.5632 69.7294 25.1646 69.8948 24.7473 69.9938C23.7518 70.2328 22.7028 70.0877 21.8095 69.5876C20.9162 69.0874 20.2442 68.269 19.9276 67.2954C19.611 66.3218 19.6729 65.2646 20.1012 64.3346C20.5294 63.4047 21.2924 62.6704 22.238 62.278C23.1837 61.8857 24.2424 61.8642 25.2032 62.2178C26.164 62.5715 26.9562 63.2743 27.4218 64.1861C27.8874 65.0979 27.9922 66.1516 27.7153 67.1373C27.4385 68.1229 26.8003 68.968 25.928 69.504Z" fill="#455A64"/>
<path id="Vector_45" d="M24.9923 65.535C24.9923 65.7834 24.9186 66.0263 24.7806 66.2328C24.6426 66.4394 24.4464 66.6004 24.2169 66.6954C23.9874 66.7905 23.7349 66.8154 23.4912 66.7669C23.2476 66.7184 23.0238 66.5988 22.8482 66.4231C22.6725 66.2475 22.5529 66.0237 22.5044 65.7801C22.456 65.5364 22.4808 65.2839 22.5759 65.0544C22.671 64.8249 22.8319 64.6287 23.0385 64.4907C23.245 64.3527 23.4879 64.279 23.7363 64.279C24.0694 64.279 24.3889 64.4114 24.6244 64.6469C24.86 64.8825 24.9923 65.2019 24.9923 65.535Z" fill="white"/>
<path id="Vector_46" d="M25.928 68.9576V69.504C25.5632 69.7294 25.1646 69.8948 24.7474 69.9938C24.218 70.1281 23.6669 70.1539 23.1273 70.0697C22.5877 69.9855 22.0707 69.7931 21.6074 69.504V68.989C21.6074 68.4194 21.8336 67.8731 22.2364 67.4703C22.6392 67.0676 23.1855 66.8413 23.7551 66.8413C24.3247 66.8413 24.871 67.0676 25.2738 67.4703C25.6766 67.8731 25.9029 68.4194 25.9029 68.989L25.928 68.9576Z" fill="white"/>
<path id="Vector_47" d="M49.3901 68.7002H43.9893L46.1935 65.9997L43.9893 63.2993H49.3901L51.5943 65.9997L49.3901 68.7002Z" fill="white"/>
<path id="Vector_48" d="M49.4654 68.876H43.6564L45.9926 66.0186L43.6564 63.1612H49.4654L51.7953 66.0186L49.4654 68.876ZM44.3221 68.562H49.3461L51.4185 66.0186L49.3461 63.5066H44.3221L46.3945 66.0186L44.3221 68.562Z" fill="#EBEBEB"/>
<path id="Vector_49" d="M35.5113 63.2993L36.3905 65.0766L38.3498 65.3592L36.9306 66.7471L37.2697 68.7002L35.5113 67.777L33.7592 68.7002L34.092 66.7471L32.6727 65.3592L34.6321 65.0766L35.5113 63.2993Z" fill="#EB9C64"/>
<path id="Vector_50" d="M87.3338 64.9008H55.4691V67.0988H87.3338V64.9008Z" fill="#263238"/>
<path id="Vector_51" d="M112.956 64.9008H100.465V67.0988H112.956V64.9008Z" fill="#455A64"/>
<path id="Vector_52" d="M123.4 74.9864H6.96869V92.9661H123.4V74.9864Z" fill="#EBEBEB"/>
<path id="Vector_53" d="M25.928 87.4522C25.5622 87.6771 25.164 87.8444 24.7473 87.9483C23.7467 88.194 22.6902 88.0535 21.7887 87.5547C20.8871 87.0558 20.2068 86.2355 19.8833 85.2572C19.5599 84.2789 19.6172 83.2147 20.0438 82.2768C20.4703 81.3388 21.2348 80.5962 22.1847 80.1971C23.1346 79.7979 24.2001 79.7716 25.1686 80.1233C26.137 80.4749 26.9373 81.1788 27.4097 82.0945C27.8822 83.0102 27.992 84.0703 27.7174 85.0633C27.4427 86.0564 26.8038 86.9094 25.928 87.4522Z" fill="#EB9C64"/>
<path id="Vector_54" d="M24.9923 83.5147C24.9923 83.7631 24.9186 84.0059 24.7806 84.2125C24.6426 84.419 24.4464 84.58 24.2169 84.6751C23.9874 84.7701 23.7349 84.795 23.4912 84.7465C23.2476 84.6981 23.0238 84.5784 22.8482 84.4028C22.6725 84.2271 22.5529 84.0033 22.5044 83.7597C22.456 83.5161 22.4808 83.2635 22.5759 83.034C22.671 82.8045 22.8319 82.6084 23.0385 82.4703C23.245 82.3323 23.4879 82.2587 23.7363 82.2587C24.0694 82.2587 24.3889 82.391 24.6244 82.6265C24.86 82.8621 24.9923 83.1816 24.9923 83.5147Z" fill="white"/>
<path id="Vector_55" d="M25.928 86.9373V87.4522C25.5622 87.6771 25.164 87.8444 24.7474 87.9484C24.2175 88.0813 23.6663 88.1059 23.1267 88.0207C22.5872 87.9354 22.0704 87.7421 21.6074 87.4522V86.9373C21.6074 86.3677 21.8336 85.8214 22.2364 85.4186C22.6392 85.0158 23.1855 84.7895 23.7551 84.7895C24.3247 84.7895 24.871 85.0158 25.2738 85.4186C25.6766 85.8214 25.9029 86.3677 25.9029 86.9373H25.928Z" fill="white"/>
<path id="Vector_56" d="M49.3901 86.6798H43.9893L46.1935 83.9794L43.9893 81.279H49.3901L51.5943 83.9794L49.3901 86.6798Z" fill="white"/>
<path id="Vector_57" d="M35.5113 81.279L36.3905 83.0562L38.3498 83.3388L36.9306 84.7267L37.2697 86.6798L35.5113 85.7566L33.7592 86.6798L34.092 84.7267L32.6727 83.3388L34.6321 83.0562L35.5113 81.279Z" fill="white"/>
<path id="Vector_58" d="M87.3338 82.8804H55.4691V85.0784H87.3338V82.8804Z" fill="#DBDBDB"/>
<path id="Vector_59" d="M112.956 82.8804H100.465V85.0784H112.956V82.8804Z" fill="#C7C7C7"/>
<path id="Vector_60" d="M25.928 105.432C25.5622 105.657 25.164 105.824 24.7473 105.928C23.7467 106.174 22.6902 106.033 21.7887 105.534C20.8871 105.035 20.2068 104.215 19.8833 103.237C19.5599 102.259 19.6172 101.194 20.0438 100.256C20.4703 99.3185 21.2348 98.5759 22.1847 98.1767C23.1346 97.7776 24.2001 97.7512 25.1686 98.1029C26.137 98.4546 26.9373 99.1585 27.4097 100.074C27.8822 100.99 27.992 102.05 27.7174 103.043C27.4427 104.036 26.8038 104.889 25.928 105.432Z" fill="#A6A6A6"/>
<path id="Vector_61" d="M24.9923 101.494C24.9923 101.743 24.9186 101.986 24.7806 102.192C24.6426 102.399 24.4464 102.56 24.2169 102.655C23.9874 102.75 23.7349 102.775 23.4912 102.726C23.2476 102.678 23.0238 102.558 22.8482 102.382C22.6725 102.207 22.5529 101.983 22.5044 101.739C22.456 101.496 22.4808 101.243 22.5759 101.014C22.671 100.784 22.8319 100.588 23.0385 100.45C23.245 100.312 23.4879 100.238 23.7363 100.238C24.0694 100.238 24.3889 100.371 24.6244 100.606C24.86 100.842 24.9923 101.161 24.9923 101.494Z" fill="white"/>
<path id="Vector_62" d="M25.928 104.923V105.432C25.5622 105.657 25.164 105.824 24.7474 105.928C24.2175 106.061 23.6663 106.086 23.1267 106C22.5872 105.915 22.0704 105.722 21.6074 105.432V104.923C21.6074 104.354 21.8336 103.807 22.2364 103.404C22.6392 103.002 23.1855 102.775 23.7551 102.775C24.3247 102.775 24.871 103.002 25.2738 103.404C25.6766 103.807 25.9029 104.354 25.9029 104.923H25.928Z" fill="white"/>
<path id="Vector_63" d="M49.3901 104.659H43.9893L46.1935 101.959L43.9893 99.2586H49.3901L51.5943 101.959L49.3901 104.659Z" fill="white"/>
<path id="Vector_64" d="M49.4654 104.816H43.6564L45.9926 101.959L43.6564 99.1016H49.4654L51.7953 101.959L49.4654 104.816ZM44.3221 104.502H49.3461L51.4185 101.99L49.3461 99.447H44.3221L46.3945 101.99L44.3221 104.502Z" fill="#EBEBEB"/>
<path id="Vector_65" d="M35.5113 99.2586L36.3905 101.036L38.3498 101.325L36.9306 102.706L37.2697 104.659L35.5113 103.736L33.7592 104.659L34.092 102.706L32.6727 101.325L34.6321 101.036L35.5113 99.2586Z" fill="#EB9C64"/>
<path id="Vector_66" d="M87.3338 100.86H55.4691V103.058H87.3338V100.86Z" fill="#DBDBDB"/>
<path id="Vector_67" d="M112.956 100.86H100.465V103.058H112.956V100.86Z" fill="#C7C7C7"/>
<path id="Vector_68" d="M123.4 110.952H6.96869V128.932H123.4V110.952Z" fill="#EBEBEB"/>
<path id="Vector_69" d="M25.928 123.412C25.5622 123.636 25.164 123.804 24.7473 123.908C23.7467 124.153 22.6902 124.013 21.7887 123.514C20.8871 123.015 20.2068 122.195 19.8833 121.216C19.5599 120.238 19.6172 119.174 20.0438 118.236C20.4703 117.298 21.2348 116.556 22.1847 116.156C23.1346 115.757 24.2001 115.731 25.1686 116.083C26.137 116.434 26.9373 117.138 27.4097 118.054C27.8822 118.969 27.992 120.03 27.7174 121.023C27.4427 122.016 26.8038 122.869 25.928 123.412Z" fill="#37474F"/>
<path id="Vector_70" d="M24.9923 119.474C24.9923 119.722 24.9186 119.965 24.7806 120.172C24.6426 120.378 24.4464 120.539 24.2169 120.634C23.9874 120.729 23.7349 120.754 23.4912 120.706C23.2476 120.657 23.0238 120.538 22.8482 120.362C22.6725 120.186 22.5529 119.963 22.5044 119.719C22.456 119.475 22.4808 119.223 22.5759 118.993C22.671 118.764 22.8319 118.568 23.0385 118.43C23.245 118.292 23.4879 118.218 23.7363 118.218C24.0694 118.218 24.3889 118.35 24.6244 118.586C24.86 118.821 24.9923 119.141 24.9923 119.474Z" fill="white"/>
<path id="Vector_71" d="M25.928 122.884V123.393C25.5622 123.617 25.164 123.785 24.7474 123.889C24.2175 124.022 23.6663 124.046 23.1267 123.961C22.5872 123.876 22.0704 123.683 21.6074 123.393V122.884C21.6074 122.314 21.8336 121.768 22.2364 121.365C22.6392 120.963 23.1855 120.736 23.7551 120.736C24.3247 120.736 24.871 120.963 25.2738 121.365C25.6766 121.768 25.9029 122.314 25.9029 122.884H25.928Z" fill="white"/>
<path id="Vector_72" d="M49.3901 122.639H43.9893L46.1935 119.939L43.9893 117.238H49.3901L51.5943 119.939L49.3901 122.639Z" fill="white"/>
<path id="Vector_73" d="M35.5113 117.238L36.3905 119.016L38.3498 119.304L36.9306 120.686L37.2697 122.639L35.5113 121.716L33.7592 122.639L34.092 120.686L32.6727 119.304L34.6321 119.016L35.5113 117.238Z" fill="#EB9C64"/>
<path id="Vector_74" d="M87.3338 118.84H55.4691V121.038H87.3338V118.84Z" fill="#DBDBDB"/>
<path id="Vector_75" d="M112.956 118.84H100.465V121.038H112.956V118.84Z" fill="#C7C7C7"/>
<path id="Vector_76" d="M123.406 218.83V227.622C123.432 229.439 122.998 231.234 122.143 232.838C121.289 234.442 120.043 235.804 118.52 236.797H11.8608C10.338 235.805 9.09126 234.443 8.23691 232.838C7.38257 231.234 6.94843 229.439 6.97496 227.622V218.83H123.406Z" fill="#EBEBEB"/>
<path id="Vector_77" d="M25.928 231.296C25.5622 231.52 25.164 231.688 24.7473 231.792C23.7467 232.037 22.6902 231.897 21.7887 231.398C20.8871 230.899 20.2068 230.079 19.8833 229.101C19.5599 228.122 19.6172 227.058 20.0438 226.12C20.4703 225.182 21.2348 224.44 22.1847 224.04C23.1346 223.641 24.2001 223.615 25.1686 223.967C26.137 224.318 26.9373 225.022 27.4097 225.938C27.8822 226.854 27.992 227.914 27.7174 228.907C27.4427 229.9 26.8038 230.753 25.928 231.296Z" fill="#EB9C64"/>
<path id="Vector_78" d="M24.9923 227.358C24.9923 227.606 24.9186 227.849 24.7806 228.056C24.6426 228.262 24.4464 228.423 24.2169 228.518C23.9874 228.614 23.7349 228.638 23.4912 228.59C23.2476 228.541 23.0238 228.422 22.8482 228.246C22.6725 228.071 22.5529 227.847 22.5044 227.603C22.456 227.359 22.4808 227.107 22.5759 226.877C22.671 226.648 22.8319 226.452 23.0385 226.314C23.245 226.176 23.4879 226.102 23.7363 226.102C24.0694 226.102 24.3889 226.234 24.6244 226.47C24.86 226.705 24.9923 227.025 24.9923 227.358Z" fill="white"/>
<path id="Vector_79" d="M25.928 230.781V231.296C25.5622 231.52 25.164 231.688 24.7474 231.792C24.2174 231.923 23.6664 231.947 23.1271 231.862C22.5877 231.777 22.071 231.584 21.6074 231.296V230.781C21.6074 230.211 21.8336 229.665 22.2364 229.262C22.6392 228.859 23.1855 228.633 23.7551 228.633C24.3247 228.633 24.871 228.859 25.2738 229.262C25.6766 229.665 25.9029 230.211 25.9029 230.781H25.928Z" fill="white"/>
<path id="Vector_80" d="M49.3901 230.523H43.9893L46.1935 227.823L43.9893 225.122H49.3901L51.5943 227.823L49.3901 230.523Z" fill="white"/>
<path id="Vector_81" d="M35.5113 225.122L36.3905 226.9L38.3498 227.182L36.9306 228.57L37.2697 230.523L35.5113 229.6L33.7592 230.523L34.092 228.57L32.6727 227.182L34.6321 226.9L35.5113 225.122Z" fill="#EB9C64"/>
<path id="Vector_82" d="M87.3338 226.724H55.4691V228.922H87.3338V226.724Z" fill="#DBDBDB"/>
<path id="Vector_83" d="M112.956 226.724H100.465V228.922H112.956V226.724Z" fill="#C7C7C7"/>
<path id="Vector_84" d="M25.928 141.391C25.3791 141.729 24.7579 141.933 24.1152 141.985C23.4725 142.038 22.8266 141.937 22.2301 141.692C21.6336 141.447 21.1036 141.065 20.6832 140.576C20.2628 140.087 19.964 139.506 19.8113 138.879C19.6326 138.146 19.6601 137.379 19.8907 136.661C20.1213 135.943 20.546 135.302 21.1179 134.811C21.6897 134.319 22.3864 133.995 23.1309 133.875C23.8754 133.754 24.6387 133.842 25.3363 134.129C26.0339 134.415 26.6387 134.889 27.0837 135.498C27.5288 136.107 27.7967 136.827 27.858 137.579C27.9192 138.33 27.7714 139.084 27.4308 139.757C27.0901 140.43 26.57 140.996 25.928 141.391Z" fill="#263238"/>
<path id="Vector_85" d="M24.9923 137.454C24.9923 137.702 24.9186 137.945 24.7806 138.151C24.6426 138.358 24.4464 138.519 24.2169 138.614C23.9874 138.709 23.7349 138.734 23.4912 138.685C23.2476 138.637 23.0238 138.517 22.8482 138.342C22.6725 138.166 22.5529 137.942 22.5044 137.699C22.456 137.455 22.4808 137.202 22.5759 136.973C22.671 136.743 22.8319 136.547 23.0385 136.409C23.245 136.271 23.4879 136.198 23.7363 136.198C24.0694 136.198 24.3889 136.33 24.6244 136.565C24.86 136.801 24.9923 137.12 24.9923 137.454Z" fill="white"/>
<path id="Vector_86" d="M25.928 140.882V141.391C25.2833 141.792 24.5393 142.004 23.7802 142.004C23.0212 142.004 22.2772 141.792 21.6325 141.391V140.882C21.6325 140.313 21.8588 139.767 22.2615 139.364C22.6643 138.961 23.2106 138.735 23.7802 138.735C24.3499 138.735 24.8961 138.961 25.2989 139.364C25.7017 139.767 25.928 140.313 25.928 140.882Z" fill="white"/>
<path id="Vector_87" d="M49.3901 140.619H43.9893L46.1935 137.918L43.9893 135.218H49.3901L51.5943 137.918L49.3901 140.619Z" fill="white"/>
<path id="Vector_88" d="M49.4654 140.776H43.6564L45.9926 137.918L43.6564 135.061H49.4654L51.7953 137.918L49.4654 140.776ZM44.3221 140.462H49.3461L51.4185 137.918L49.3461 135.375H44.3221L46.3945 137.918L44.3221 140.462Z" fill="#EBEBEB"/>
<path id="Vector_89" d="M35.5113 135.218L36.3905 136.995L38.3498 137.284L36.9306 138.666L37.2697 140.619L35.5113 139.696L33.7592 140.619L34.092 138.666L32.6727 137.284L34.6321 136.995L35.5113 135.218Z" fill="white"/>
<path id="Vector_90" d="M37.4769 140.908L35.5113 139.878L33.5457 140.908L33.9225 138.722L32.3336 137.171L34.5316 136.857L35.5113 134.866L36.491 136.857L38.689 137.171L37.1001 138.722L37.4769 140.908ZM35.5113 139.52L37.0562 140.336L36.761 138.609L38.017 137.391L36.2837 137.14L35.5113 135.576L34.72 137.14L32.993 137.391L34.249 138.609L33.9539 140.336L35.5113 139.52Z" fill="#EBEBEB"/>
<path id="Vector_91" d="M87.3338 136.819H55.4691V139.017H87.3338V136.819Z" fill="#DBDBDB"/>
<path id="Vector_92" d="M112.956 136.819H100.465V139.017H112.956V136.819Z" fill="#C7C7C7"/>
<path id="Vector_93" d="M123.4 146.911H6.96869V164.891H123.4V146.911Z" fill="#EBEBEB"/>
<path id="Vector_94" d="M25.928 159.377C25.5619 159.6 25.1637 159.765 24.7473 159.867C23.9631 160.057 23.1399 160.011 22.3819 159.734C21.624 159.457 20.9652 158.961 20.4888 158.31C20.0125 157.658 19.7399 156.88 19.7056 156.074C19.6714 155.267 19.8769 154.469 20.2963 153.779C20.7156 153.09 21.33 152.54 22.0617 152.199C22.7934 151.859 23.6097 151.743 24.4073 151.866C25.2049 151.989 25.9481 152.346 26.5429 152.892C27.1378 153.437 27.5575 154.147 27.7492 154.931C27.9528 155.769 27.8864 156.651 27.5593 157.449C27.2323 158.248 26.6613 158.922 25.928 159.377Z" fill="#EB9C64"/>
<path id="Vector_95" d="M24.9923 155.433C24.9923 155.682 24.9186 155.924 24.7806 156.131C24.6426 156.338 24.4464 156.499 24.2169 156.594C23.9874 156.689 23.7349 156.714 23.4912 156.665C23.2476 156.617 23.0238 156.497 22.8482 156.321C22.6725 156.146 22.5529 155.922 22.5044 155.678C22.456 155.435 22.4808 155.182 22.5759 154.953C22.671 154.723 22.8319 154.527 23.0385 154.389C23.245 154.251 23.4879 154.177 23.7363 154.177C24.0694 154.177 24.3889 154.31 24.6244 154.545C24.86 154.781 24.9923 155.1 24.9923 155.433Z" fill="white"/>
<path id="Vector_96" d="M25.928 158.862V159.377C25.5619 159.6 25.1637 159.765 24.7474 159.867C24.2175 160 23.6663 160.024 23.1267 159.939C22.5872 159.854 22.0704 159.661 21.6074 159.371V158.862C21.6074 158.292 21.8336 157.746 22.2364 157.343C22.6392 156.941 23.1855 156.714 23.7551 156.714C24.3247 156.714 24.871 156.941 25.2738 157.343C25.6766 157.746 25.9029 158.292 25.9029 158.862H25.928Z" fill="white"/>
<path id="Vector_97" d="M49.3901 158.605H43.9893L46.1935 155.898L43.9893 153.198H49.3901L51.5943 155.898L49.3901 158.605Z" fill="white"/>
<path id="Vector_98" d="M35.5113 153.198L36.3905 154.981L38.3498 155.264L36.9306 156.645L37.2697 158.605L35.5113 157.681L33.7592 158.605L34.092 156.645L32.6727 155.264L34.6321 154.981L35.5113 153.198Z" fill="#EB9C64"/>
<path id="Vector_99" d="M87.3338 154.805H55.4691V157.003H87.3338V154.805Z" fill="#263238"/>
<path id="Vector_100" d="M112.956 154.805H100.465V157.003H112.956V154.805Z" fill="#455A64"/>
<path id="Vector_101" d="M25.928 177.357C25.5632 177.582 25.1646 177.748 24.7473 177.847C23.9631 178.037 23.1399 177.991 22.3819 177.714C21.624 177.436 20.9652 176.941 20.4888 176.289C20.0125 175.638 19.7399 174.86 19.7056 174.053C19.6714 173.247 19.8769 172.448 20.2963 171.759C20.7156 171.069 21.33 170.52 22.0617 170.179C22.7934 169.838 23.6097 169.723 24.4073 169.846C25.2049 169.969 25.9481 170.326 26.5429 170.871C27.1378 171.417 27.5575 172.127 27.7492 172.91C27.9528 173.749 27.8864 174.63 27.5593 175.429C27.2323 176.227 26.6613 176.902 25.928 177.357Z" fill="#EB9C64"/>
<path id="Vector_102" d="M24.9923 173.413C24.9923 173.661 24.9186 173.904 24.7806 174.111C24.6426 174.317 24.4464 174.478 24.2169 174.573C23.9874 174.668 23.7349 174.693 23.4912 174.645C23.2476 174.596 23.0238 174.477 22.8482 174.301C22.6725 174.125 22.5529 173.902 22.5044 173.658C22.456 173.414 22.4808 173.162 22.5759 172.932C22.671 172.703 22.8319 172.507 23.0385 172.369C23.245 172.231 23.4879 172.157 23.7363 172.157C24.0694 172.157 24.3889 172.289 24.6244 172.525C24.86 172.76 24.9923 173.08 24.9923 173.413Z" fill="white"/>
<path id="Vector_103" d="M25.928 176.842V177.357C25.5632 177.582 25.1646 177.748 24.7474 177.847C24.2175 177.98 23.6663 178.004 23.1267 177.919C22.5872 177.834 22.0704 177.64 21.6074 177.35V176.842C21.6074 176.272 21.8336 175.726 22.2364 175.323C22.6392 174.92 23.1855 174.694 23.7551 174.694C24.3247 174.694 24.871 174.92 25.2738 175.323C25.6766 175.726 25.9029 176.272 25.9029 176.842H25.928Z" fill="white"/>
<path id="Vector_104" d="M49.3901 176.584H43.9893L46.1935 173.884L43.9893 171.183H49.3901L51.5943 173.884L49.3901 176.584Z" fill="white"/>
<path id="Vector_105" d="M49.4654 176.741H43.6564L45.9926 173.884L43.6564 171.026H49.4654L51.7953 173.884L49.4654 176.741ZM44.3221 176.427H49.3461L51.4185 173.884L49.3461 171.372H44.3221L46.3945 173.884L44.3221 176.427Z" fill="#EBEBEB"/>
<path id="Vector_106" d="M35.5113 171.183L36.3905 172.961L38.3498 173.243L36.9306 174.625L37.2697 176.584L35.5113 175.661L33.7592 176.584L34.092 174.625L32.6727 173.243L34.6321 172.961L35.5113 171.183Z" fill="white"/>
<path id="Vector_107" d="M37.4769 176.892L35.5113 175.862L33.5457 176.892L33.9225 174.707L32.3336 173.124L34.5316 172.804L35.5113 170.813L36.491 172.804L38.689 173.124L37.1001 174.669L37.4769 176.892ZM33.0119 173.381L34.2679 174.6L33.9727 176.321L35.5176 175.504L37.0625 176.321L36.7673 174.6L38.0233 173.381L36.29 173.124L35.5176 171.56L34.72 173.124L33.0119 173.381Z" fill="#EBEBEB"/>
<path id="Vector_108" d="M87.3338 172.785H55.4691V174.983H87.3338V172.785Z" fill="#DBDBDB"/>
<path id="Vector_109" d="M112.956 172.785H100.465V174.983H112.956V172.785Z" fill="#C7C7C7"/>
<path id="Vector_110" d="M123.4 182.871H6.96869V200.85H123.4V182.871Z" fill="#EBEBEB"/>
<path id="Vector_111" d="M25.928 195.336C25.5632 195.562 25.1646 195.727 24.7473 195.826C23.7518 196.065 22.7028 195.92 21.8095 195.42C20.9162 194.92 20.2442 194.101 19.9276 193.128C19.611 192.154 19.6729 191.097 20.1012 190.167C20.5294 189.237 21.2924 188.503 22.238 188.11C23.1837 187.718 24.2424 187.697 25.2032 188.05C26.164 188.404 26.9562 189.107 27.4218 190.018C27.8874 190.93 27.9922 191.984 27.7153 192.97C27.4385 193.955 26.8003 194.8 25.928 195.336Z" fill="#455A64"/>
<path id="Vector_112" d="M24.9923 191.393C24.9923 191.641 24.9186 191.884 24.7806 192.09C24.6426 192.297 24.4464 192.458 24.2169 192.553C23.9874 192.648 23.7349 192.673 23.4912 192.624C23.2476 192.576 23.0238 192.456 22.8482 192.281C22.6725 192.105 22.5529 191.881 22.5044 191.638C22.456 191.394 22.4808 191.141 22.5759 190.912C22.671 190.682 22.8319 190.486 23.0385 190.348C23.245 190.21 23.4879 190.137 23.7363 190.137C24.0694 190.137 24.3889 190.269 24.6244 190.504C24.86 190.74 24.9923 191.059 24.9923 191.393Z" fill="white"/>
<path id="Vector_113" d="M25.928 194.821V195.336C25.5632 195.562 25.1646 195.727 24.7474 195.826C24.2178 195.959 23.6671 195.984 23.1277 195.899C22.5884 195.815 22.0714 195.624 21.6074 195.336V194.821C21.6074 194.252 21.8336 193.705 22.2364 193.303C22.6392 192.9 23.1855 192.674 23.7551 192.674C24.3247 192.674 24.871 192.9 25.2738 193.303C25.6766 193.705 25.9029 194.252 25.9029 194.821H25.928Z" fill="white"/>
<path id="Vector_114" d="M49.3901 194.564H43.9893L46.1935 191.864L43.9893 189.163H49.3901L51.5943 191.864L49.3901 194.564Z" fill="white"/>
<path id="Vector_115" d="M35.5113 189.163L36.3905 190.94L38.3498 191.223L36.9306 192.605L37.2697 194.564L35.5113 193.641L33.7592 194.564L34.092 192.605L32.6727 191.223L34.6321 190.94L35.5113 189.163Z" fill="white"/>
<path id="Vector_116" d="M87.3338 190.765H55.4691V192.963H87.3338V190.765Z" fill="#DBDBDB"/>
<path id="Vector_117" d="M112.956 190.765H100.465V192.963H112.956V190.765Z" fill="#C7C7C7"/>
<path id="Vector_118" d="M25.928 213.316C25.5632 213.541 25.1646 213.707 24.7473 213.806C23.7518 214.045 22.7028 213.9 21.8095 213.4C20.9162 212.899 20.2442 212.081 19.9276 211.107C19.611 210.134 19.6729 209.077 20.1012 208.147C20.5294 207.217 21.2924 206.482 22.238 206.09C23.1837 205.698 24.2424 205.676 25.2032 206.03C26.164 206.383 26.9562 207.086 27.4218 207.998C27.8874 208.91 27.9922 209.964 27.7153 210.949C27.4385 211.935 26.8003 212.78 25.928 213.316Z" fill="#A6A6A6"/>
<path id="Vector_119" d="M24.9923 209.378C24.9923 209.627 24.9186 209.87 24.7806 210.076C24.6426 210.283 24.4464 210.444 24.2169 210.539C23.9874 210.634 23.7349 210.659 23.4912 210.61C23.2476 210.562 23.0238 210.442 22.8482 210.267C22.6725 210.091 22.5529 209.867 22.5044 209.623C22.456 209.38 22.4808 209.127 22.5759 208.898C22.671 208.668 22.8319 208.472 23.0385 208.334C23.245 208.196 23.4879 208.122 23.7363 208.122C24.0694 208.122 24.3889 208.255 24.6244 208.49C24.86 208.726 24.9923 209.045 24.9923 209.378Z" fill="white"/>
<path id="Vector_120" d="M25.928 212.801V213.316C25.5632 213.541 25.1646 213.707 24.7474 213.806C24.218 213.94 23.6669 213.966 23.1273 213.882C22.5877 213.798 22.0707 213.605 21.6074 213.316V212.801C21.6074 212.231 21.8336 211.685 22.2364 211.282C22.6392 210.88 23.1855 210.653 23.7551 210.653C24.3247 210.653 24.871 210.88 25.2738 211.282C25.6766 211.685 25.9029 212.231 25.9029 212.801H25.928Z" fill="white"/>
<path id="Vector_121" d="M49.3901 212.544H43.9893L46.1935 209.843L43.9893 207.143H49.3901L51.5943 209.843L49.3901 212.544Z" fill="white"/>
<path id="Vector_122" d="M49.4654 212.688H43.6564L45.9926 209.831L43.6564 206.973H49.4654L51.7953 209.831L49.4654 212.688ZM44.3221 212.374H49.3461L51.4185 209.862L49.3461 207.319H44.3221L46.3945 209.862L44.3221 212.374Z" fill="#EBEBEB"/>
<path id="Vector_123" d="M35.5113 207.143L36.3905 208.92L38.3498 209.203L36.9306 210.59L37.2697 212.544L35.5113 211.62L33.7592 212.544L34.092 210.59L32.6727 209.203L34.6321 208.92L35.5113 207.143Z" fill="white"/>
<path id="Vector_124" d="M37.4769 212.832L35.5113 211.796L33.5457 212.832L33.9225 210.641L32.3336 209.096L34.5316 208.776L35.5113 206.785L36.491 208.776L38.689 209.096L37.1001 210.641L37.4769 212.832ZM35.5113 211.432L37.0562 212.242L36.761 210.521L38.017 209.303L36.2837 209.052L35.5113 207.482L34.7389 209.052L33.0119 209.303L34.2679 210.521L33.9727 212.242L35.5113 211.432Z" fill="#EBEBEB"/>
<path id="Vector_125" d="M87.3338 208.744H55.4691V210.942H87.3338V208.744Z" fill="#DBDBDB"/>
<path id="Vector_126" d="M112.956 208.744H100.465V210.942H112.956V208.744Z" fill="#C7C7C7"/>
</g>
</svg>
