<svg width="180" height="193" viewBox="0 0 180 193" fill="none" xmlns="http://www.w3.org/2000/svg">
<g id="freepik--Character--inject-2">
<path id="Vector" d="M122.13 186.796H71.1494C65.0515 165.406 60.1469 149.116 60.1469 149.116H108.484C108.484 149.116 114.456 165.249 122.13 186.796Z" fill="#37474F"/>
<path id="Vector_2" d="M78.6163 186.796H77.5676C74.5469 176.717 71.4069 166.7 68.3297 156.608C68.2857 156.476 68.493 156.414 68.5432 156.545C69.1712 158.291 69.7992 160.037 70.4272 161.789C73.3662 170.054 76.0604 178.406 78.6163 186.796Z" fill="#263238"/>
<path id="Vector_3" d="M107.379 149.135C107.322 150.146 104.628 159.397 103.234 173.238C102.725 178.343 102.147 183.147 101.532 186.796H33.8776C27.1831 166.11 37.1181 149.116 37.1181 149.116C37.1181 149.116 107.385 149.091 107.379 149.135Z" fill="#37474F"/>
<path id="Vector_4" d="M93.8579 172.044C94.0965 175.517 94.1782 178.996 94.1342 182.469C94.0241 183.909 94.0115 185.355 94.0965 186.796H92.9222C92.6396 184.592 92.9222 181.848 92.9222 179.681C92.8845 170.707 91.7415 161.833 90.3599 152.978C90.3587 152.939 90.3715 152.9 90.3961 152.868C90.4206 152.837 90.4554 152.815 90.4943 152.807C90.5332 152.799 90.5738 152.805 90.6089 152.823C90.6441 152.842 90.6715 152.872 90.6865 152.909C92.3977 159.162 93.4604 165.574 93.8579 172.044Z" fill="#263238"/>
<path id="Vector_5" d="M102.248 176.528C102.185 178.375 101.683 183.292 100.232 186.796H99.221C101.187 182.005 101.074 172.654 100.929 170.468C100.521 164.063 100.025 158.046 98.9384 151.302C98.9007 151.088 99.2524 151.076 99.2964 151.27C101.212 159.409 102.512 168.176 102.248 176.528Z" fill="#263238"/>
<path id="Vector_6" d="M38.0538 158.115C36.0945 166.587 37.049 175.699 38.9205 184.083C39.1151 184.994 39.3349 185.898 39.5485 186.796H38.5311C35.7616 175.109 34.9138 163.014 39.7871 151.678C39.8499 151.54 40.0571 151.678 40.0006 151.798C39.1922 153.851 38.5413 155.963 38.0538 158.115Z" fill="#263238"/>
<path id="Vector_7" d="M150.372 25.576L139.256 60.9575C138.81 61.9874 139.294 62.8792 140.324 62.9357L158.837 63.9908C159.404 63.9822 159.957 63.8123 160.431 63.5009C160.904 63.1894 161.28 62.7494 161.512 62.2324L172.603 26.876C173.049 25.8398 172.565 24.9543 171.535 24.8978L153.072 23.8427C152.504 23.8443 151.947 24.0083 151.469 24.3153C150.99 24.6224 150.61 25.0598 150.372 25.576Z" fill="#37474F"/>
<path id="Vector_8" d="M152.57 25.7079L141.479 61.0643C141.033 62.0942 141.517 62.9797 142.553 63.0425L161.06 64.0975C161.628 64.0879 162.181 63.9176 162.655 63.6064C163.13 63.2951 163.507 62.8557 163.742 62.3391L174.826 26.9764C175.272 25.9465 174.795 25.0924 173.758 25.0045L155.245 23.9432C154.678 23.9545 154.126 24.1263 153.652 24.4386C153.179 24.751 152.803 25.191 152.57 25.7079Z" fill="#455A64"/>
<path id="Vector_9" d="M157.55 27.6358C157.525 27.9467 157.409 28.2433 157.215 28.4881C157.022 28.7329 156.761 28.9149 156.464 29.011C156.167 29.1071 155.849 29.113 155.549 29.028C155.249 28.943 154.981 28.771 154.778 28.5336C154.576 28.2962 154.449 28.0041 154.413 27.6943C154.376 27.3846 154.433 27.071 154.575 26.7934C154.717 26.5158 154.938 26.2865 155.211 26.1346C155.483 25.9828 155.794 25.9151 156.105 25.9402C156.521 25.9739 156.907 26.1713 157.178 26.4892C157.449 26.8071 157.583 27.2195 157.55 27.6358Z" fill="#263238"/>
<path id="Vector_10" d="M87.5904 76.5131C96.5897 99.5042 118.187 130.012 127.908 130.779C132.53 131.149 140.719 132.801 147.144 127.883C161.161 117.157 173.702 95.6922 176.798 83.1385C177.903 78.6734 156.564 67.4385 153.072 70.8988C144.908 79.0125 134.954 95.3342 133.604 95.1458C128.655 94.4425 110.255 76.9338 97.4249 64.6313C81.8505 49.6849 83.992 67.3505 87.5904 76.5131Z" fill="#EB9481"/>
<path id="Vector_11" d="M178.883 59.8271C177.162 50.495 175.291 48.3661 178.016 39.7311C179.806 34.0791 176.955 30.4807 172.565 34.839C165.381 41.9605 165.073 54.464 166.216 58.8286L178.883 59.8271Z" fill="#EB9481"/>
<path id="Vector_12" d="M175.466 87.007C175.466 87.007 180.403 74.4909 179.555 64.399C178.964 57.403 175.988 42.3185 157.104 33.2125C152.626 31.0522 144.713 31.1526 150.748 37.3384C155.031 41.7344 159.082 43.2228 161.11 46.2309C161.11 46.2309 151.062 47.5497 149.065 52.1216C147.331 56.1194 145.881 60.2346 144.726 64.4366C145.446 64.8252 146.191 65.1671 146.955 65.4603C146.955 65.4603 145.228 69.7998 148.098 76.3058L175.466 87.007Z" fill="#EB9481"/>
<path id="Vector_13" d="M177.928 57.7798C175.284 55.2176 169.588 49.8859 163.409 47.1415C156.551 44.0957 142.509 40.0765 140.311 45.1633C138.703 48.8936 143.928 50.9032 143.928 50.9032C143.928 50.9032 137.774 50.4636 137.058 54.15C136.43 57.5098 140.537 58.8223 140.537 58.8223C140.537 58.8223 136.769 59.1991 136.769 62.5589C136.769 66.597 144.676 65.1463 148.205 69.2471C148.984 70.164 177.928 57.7798 177.928 57.7798Z" fill="#EB9481"/>
<path id="Vector_14" d="M161.399 54.9287C158.517 52.9254 150.805 50.0617 144.054 50.809C143.897 50.809 143.828 50.9472 143.972 50.9598C149.915 51.5956 155.758 52.9493 161.374 54.9915C161.412 55.0104 161.431 54.9476 161.399 54.9287Z" fill="#263238"/>
<path id="Vector_15" d="M158.096 61.7676C155.433 60.2918 147.357 57.6982 140.512 58.6842C140.361 58.6842 140.298 58.8349 140.443 58.8474C146.398 59.1731 152.297 60.1738 158.027 61.8304C158.035 61.8396 158.047 61.8451 158.059 61.8457C158.072 61.8463 158.084 61.8419 158.093 61.8336C158.102 61.8253 158.107 61.8136 158.108 61.8013C158.109 61.7889 158.104 61.7768 158.096 61.7676Z" fill="#263238"/>
<path id="Vector_16" d="M115.681 78.3845L112.252 82.5482L111.542 83.4148L97.808 100.007C97.808 100.007 85.3799 79.7096 82.8679 68.167C81.367 61.259 82.4471 57.1456 85.4678 56.3982C85.6927 56.3455 85.9217 56.3119 86.1523 56.2978C88.1054 56.1282 90.7304 57.1581 93.8704 59.4754C102.713 66.0066 115.681 78.3845 115.681 78.3845Z" fill="#EB9C64"/>
<path id="Vector_17" d="M114.915 77.7C114.598 78.7407 114.209 79.7583 113.753 80.7458L115.637 78.485C115.642 78.458 115.642 78.4304 115.637 78.4034C115.58 78.2903 115.323 78.0454 114.915 77.7ZM93.8202 59.488C92.5997 60.264 91.4815 61.1903 90.4918 62.2449C87.4835 65.3929 85.8015 69.5777 85.7944 73.932C85.8036 75.1013 85.8791 76.2692 86.0205 77.43C86.3303 78.1459 86.6443 78.8618 86.9625 79.5777C86.9059 79.113 86.8431 78.6546 86.7803 78.1836C86.3425 75.6764 86.3086 73.1153 86.6799 70.5973C87.0766 68.6121 87.8321 66.7159 88.9093 65.0018C90.2365 62.8598 92.0048 61.0251 94.0965 59.6199C94.0149 59.5697 93.9458 59.5131 93.8705 59.4566L93.8202 59.488Z" fill="white"/>
<path id="Vector_18" d="M95.139 93.1048C95.8801 91.359 103.51 80.8777 109.866 74.2209C109.885 74.1992 109.912 74.1861 109.941 74.1843C109.969 74.1825 109.998 74.1923 110.019 74.2115C110.041 74.2306 110.054 74.2576 110.056 74.2864C110.058 74.3153 110.048 74.3437 110.029 74.3653C109.401 75.1817 96.8409 92.0184 95.3588 93.2932C95.2395 93.4 95.0888 93.2304 95.139 93.1048Z" fill="#263238"/>
<path id="Vector_19" opacity="0.05" d="M106.6 89.3996L97.808 100C97.808 100 85.3799 79.7096 82.8679 68.167C81.1346 60.2039 82.8239 55.9712 86.9499 56.2915L106.6 89.3996Z" fill="black"/>
<path id="Vector_20" d="M109.112 151.923C107.354 153.807 33.0047 161.752 32.5776 161.237C31.441 159.849 38.2799 84.7085 68.7379 57.1832C74.1073 52.3351 83.5901 53.7167 87.9861 56.2098C90.1778 57.4658 93.996 67.8404 97.7326 79.9671C100.559 89.2301 110.192 150.705 109.112 151.923Z" fill="#EB9C64"/>
<path id="Vector_21" d="M109.112 151.923C108.723 152.344 104.716 153.073 98.7312 153.939L98.0529 154.033C95.026 154.467 91.5343 154.931 87.7663 155.402L86.9499 155.509C76.1922 156.859 63.3622 158.304 52.862 159.409L52.5229 159.44C41.2189 160.634 32.7221 161.412 32.5776 161.237C32.4332 161.061 32.4332 157.927 32.9293 152.991C32.9293 152.784 32.9733 152.564 32.9921 152.363C34.179 140.952 37.4698 120.222 44.1642 100.17C44.271 99.8433 44.384 99.5418 44.4908 99.1964C46.494 93.2185 48.8575 87.3673 51.5684 81.6752C51.65 81.5057 51.7254 81.3424 51.8133 81.1728C54.467 75.5886 57.6643 70.2794 61.3589 65.3221C61.4845 65.1588 61.6038 65.0018 61.7357 64.8511C63.8355 62.0945 66.179 59.5324 68.7379 57.1958C69.4554 56.5561 70.2509 56.0096 71.1054 55.5693C71.3001 55.4688 71.5011 55.3746 71.702 55.2867C74.3799 54.1626 77.2976 53.7306 80.1863 54.0307L80.9022 54.106C83.3787 54.3483 85.7845 55.0692 87.9861 56.2287C88.8464 56.7248 89.9643 58.6214 91.2266 61.5039C91.2894 61.6295 91.3459 61.7676 91.4024 61.9058C93.2864 66.3018 95.5409 72.8581 97.7326 79.9859C98.5051 82.4979 99.7925 88.9035 101.218 96.8917L101.312 97.4318C101.808 100.189 102.317 103.14 102.826 106.18C102.901 106.613 102.976 107.04 103.046 107.473C104.082 113.678 105.118 120.197 106.041 126.276C106.072 126.521 106.11 126.772 106.154 127.011C106.933 132.21 107.624 137.059 108.157 141.071C108.195 141.392 108.233 141.699 108.277 142.013C108.986 147.779 109.351 151.628 109.112 151.923Z" fill="#EB9C64"/>
<path id="Vector_22" d="M84.9215 144.639C83.6545 142.868 82.0415 141.372 80.1801 140.243C78.1807 139.08 75.9759 138.315 73.6865 137.988C71.2876 137.574 68.7693 137.36 66.5211 136.318C64.3733 135.344 62.8661 133.605 61.3652 131.852C60.9695 131.394 60.5613 130.936 60.1469 130.496C60.6179 130.176 61.0951 129.868 61.585 129.548C64.4047 127.814 67.5196 126.508 70.1258 124.448C72.4845 122.62 74.1358 120.03 74.7981 117.12C75.4315 114.252 75.2132 111.261 74.1701 108.516C73.0626 105.746 71.2375 103.32 68.8823 101.489C66.4678 99.6398 63.7071 98.2938 60.7635 97.5301C57.8199 96.7664 54.753 96.6006 51.7442 97.0424C49.2268 97.3782 46.7748 98.0939 44.472 99.165C44.3652 99.4916 44.2522 99.793 44.1454 100.138C45.2617 99.5764 46.4209 99.1039 47.612 98.7254C53.3575 96.8377 59.614 97.2774 65.039 99.95C67.6554 101.251 69.9195 103.164 71.6393 105.527C73.2939 107.863 74.2263 110.634 74.3208 113.496C74.4517 116.324 73.6411 119.116 72.0161 121.434C70.1321 123.99 67.2621 125.535 64.5366 127.011C62.8535 127.927 61.2207 128.895 59.6319 129.968C58.7132 129.016 57.6108 128.26 56.3914 127.745C54.3656 127.006 52.146 126.993 50.1114 127.708C45.684 129.196 43.0527 133.485 42.544 137.988C42.2959 140.499 42.5871 143.034 43.3981 145.424C41.5524 147.315 39.4886 148.98 37.25 150.385C35.906 151.215 34.4628 151.874 32.9545 152.344C32.9545 152.558 32.9105 152.777 32.8917 152.972C33.1617 152.897 33.4317 152.815 33.6955 152.721C37.5451 151.421 40.7479 148.921 43.643 146.114C44.4491 148.294 45.5026 150.374 46.783 152.313C48.4407 154.871 50.3556 157.253 52.4978 159.422L52.8369 159.39C51.5985 158.083 50.4388 156.703 49.3641 155.258C47.1128 152.369 45.3266 149.146 44.0701 145.706C45.1439 144.639 46.1801 143.527 47.2101 142.428C49.1945 140.268 51.1476 138.032 53.264 136.016C55.2371 134.119 57.365 132.39 59.6256 130.848C60.9758 132.286 62.1376 133.912 63.6071 135.244C65.341 136.684 67.4255 137.64 69.6485 138.013C71.9533 138.497 74.3271 138.691 76.5942 139.388C78.6127 140.025 80.467 141.097 82.0264 142.528C83.5982 143.928 84.8579 145.643 85.7234 147.561C86.589 149.479 87.0411 151.558 87.0504 153.663C87.0462 154.283 86.998 154.902 86.9059 155.515L87.7223 155.409C88.1739 151.594 87.1741 147.75 84.9215 144.639ZM56.1653 132.512C53.785 134.473 51.5537 136.607 49.4897 138.899C47.6057 140.921 45.7908 143.037 43.8377 145.015C43.4935 143.899 43.2538 142.753 43.1218 141.593C42.6319 137.197 43.9696 132.173 47.7501 129.548C49.4771 128.332 51.5553 127.716 53.6659 127.796C55.7343 127.939 57.6743 128.85 59.1044 130.352C58.1059 131.036 57.1199 131.746 56.1653 132.512ZM106.01 126.232C103.837 127.971 101.771 129.868 99.3403 131.256C95.8424 133.253 91.0319 134.314 87.8479 131.143C86.5215 129.855 85.7223 128.12 85.6062 126.275C85.4901 124.43 86.0654 122.608 87.2199 121.164C88.4759 119.405 90.0271 117.93 91.2454 116.14C92.2442 114.643 93.116 113.066 93.8516 111.424C95.4117 111.892 97.0828 111.832 98.6056 111.254C100.464 110.507 102.013 109.152 103.002 107.411C102.933 106.977 102.857 106.55 102.782 106.117C102.289 107.082 101.654 107.967 100.898 108.742C100.2 109.485 99.3449 110.062 98.3954 110.433C97.4458 110.803 96.4256 110.957 95.4091 110.884C94.9979 110.842 94.5906 110.768 94.1907 110.664C94.2849 110.469 94.3729 110.268 94.4608 110.036C96.2255 106.004 97.7013 101.74 100.477 98.2482C100.723 97.9338 100.985 97.632 101.262 97.3438L101.168 96.8038C98.5553 99.5167 96.8723 103.046 95.3839 106.456C94.7999 107.794 94.2284 109.138 93.6067 110.469C92.2126 109.972 90.9498 109.165 89.9141 108.108C86.504 104.635 86.2465 99.2718 86.5982 94.7C86.8243 91.9116 87.2262 89.1359 87.3644 86.3476C87.394 83.5944 87.1839 80.8438 86.7364 78.127C86.2986 75.6198 86.2646 73.0587 86.6359 70.5408C87.0326 68.5556 87.7881 66.6594 88.8653 64.9453C89.5597 63.8056 90.386 62.7517 91.3271 61.8053C91.2705 61.6672 91.214 61.529 91.1512 61.4034C90.9126 61.6295 90.6802 61.8618 90.4479 62.1068C87.4224 65.2962 85.7539 69.536 85.7944 73.932C85.7944 76.7957 86.3659 79.6154 86.5857 82.4665C86.7352 85.4039 86.5943 88.3489 86.1649 91.2585C85.5809 96.339 85.0596 101.935 87.7098 106.557C88.9607 108.731 90.9306 110.401 93.2801 111.279C92.985 111.907 92.6835 112.535 92.357 113.113C91.7795 114.185 91.1334 115.22 90.4227 116.209C89.7508 117.126 88.9972 117.98 88.2561 118.84C86.8934 120.429 85.5055 122.162 85.1161 124.26C84.7819 126.061 85.0604 127.923 85.9074 129.548C86.7252 131.195 88.097 132.503 89.7822 133.24C91.8223 134.027 94.071 134.087 96.1501 133.41C100.081 132.261 103.058 129.491 106.154 126.992C106.079 126.753 106.041 126.502 106.01 126.257V126.232ZM108.245 141.97C106.267 140.4 104.157 138.83 101.57 138.622C100.305 138.477 99.03 138.791 97.9776 139.508C97.0154 140.234 96.2988 141.238 95.924 142.384C95.0671 144.908 95.1677 147.66 96.2066 150.115C96.8061 151.54 97.6569 152.846 98.7186 153.971L98.0404 154.065C97.3353 153.302 96.722 152.459 96.2129 151.553C95.4919 150.26 95.0131 148.847 94.7999 147.383C94.4105 144.839 94.7999 141.976 96.4704 139.935C98.2853 137.724 101.243 137.498 103.787 138.428C105.371 139.068 106.843 139.959 108.145 141.065C108.164 141.373 108.201 141.687 108.245 141.995V141.97ZM80.224 55.0543C80.4501 54.7403 80.6573 54.4263 80.852 54.0872L80.1361 54.0118C78.6789 56.248 76.9467 58.2924 74.9802 60.0972L74.5909 60.4677C74.195 59.0797 73.5733 57.7664 72.7508 56.5804C72.4192 56.1169 72.0517 55.6801 71.6518 55.2741C71.4509 55.362 71.2499 55.4562 71.0552 55.5567C72.3714 56.8949 73.347 58.5296 73.9001 60.3232C73.9629 60.5305 74.0194 60.7377 74.0759 60.9512C72.3747 62.6374 70.3835 64.0032 68.1978 64.983C66.138 65.8182 63.626 65.9878 61.6855 64.8448C61.5536 64.9956 61.4343 65.1526 61.3087 65.3158C62.9147 66.2375 64.8055 66.5306 66.6153 66.1385C69.4978 65.5922 71.9595 63.6893 74.1136 61.799L74.258 61.6734C75.1623 65.5545 74.8232 69.649 75.4324 73.6054C76.1295 78.1082 78.2898 82.6612 77.1782 87.2707C76.8126 89.0778 75.8289 90.701 74.3962 91.8614C73.5335 92.451 72.5414 92.8239 71.5039 92.9485C70.4665 93.0732 69.4142 92.9458 68.4365 92.5773C63.9902 91.1518 61.3966 86.9253 57.7165 84.3254C55.8298 83.1029 53.8374 82.0521 51.7631 81.1854C51.6751 81.355 51.5998 81.5182 51.5181 81.6878C52.7741 82.2844 54.0301 82.8433 55.1731 83.4776C56.0724 83.952 56.9333 84.4958 57.7479 85.1041C58.7001 85.8525 59.6061 86.6578 60.4609 87.5156C62.1627 89.1736 63.8332 90.9382 65.9056 92.1503C67.7896 93.2493 70.0441 93.9464 72.2296 93.5256C73.167 93.3184 74.0498 92.9146 74.8195 92.3408C75.5892 91.7671 76.2284 91.0364 76.6947 90.1972C77.6513 88.5 78.1451 86.5813 78.1265 84.6331C78.1265 82.1211 77.442 79.6091 76.8328 77.1788C76.4888 75.886 76.2142 74.5758 76.0101 73.2538C75.8469 72.0857 75.7527 70.9176 75.6836 69.7432C75.6135 67.4174 75.4207 65.0968 75.1058 62.7913C75.0179 62.2575 74.9111 61.73 74.7855 61.2024C76.8221 59.3624 78.6463 57.3002 80.224 55.0543Z" fill="white"/>
<path id="Vector_23" d="M61.5033 67.652C49.2636 93.13 32.8791 156.445 30.4738 165.752C28.8348 172.07 61.8236 178.469 62.6965 174.079C63.7013 169.055 76.3178 94.9512 75.0618 68.2612C74.3773 53.6539 65.736 58.86 61.5033 67.652Z" fill="#EB9481"/>
<path id="Vector_24" d="M63.1047 171.159C62.7154 175.957 59.9647 185.716 57.6537 187.305C55.3426 188.894 42.6633 189.245 36.3017 189.584C29.94 189.924 28.571 188.228 28.5584 186.011C28.5459 183.794 41.916 182.689 41.916 182.689C41.916 182.689 24.332 188.749 19.8795 189.817C15.427 190.884 5.22197 194.043 3.55149 190.401C2.74765 188.756 5.49201 186.909 5.49201 186.909C5.49201 186.909 1.21533 188.404 0.411487 186.281C-0.505393 183.863 2.87953 182.331 2.87953 182.331C2.87953 182.331 0.191686 183.022 0.0284063 181.019C-0.348394 176.553 16.5197 173.483 16.5197 173.483C16.5197 173.483 3.84665 180.497 3.23749 176.867C2.39597 171.843 28.7531 164.898 31.4096 162.549C33.3403 160.761 35.1312 158.827 36.7664 156.765L63.1047 171.159Z" fill="#EB9481"/>
<path id="Vector_25" d="M28.728 187.116C28.6673 186.806 28.6824 186.486 28.772 186.183C28.8617 185.881 29.0233 185.604 29.243 185.377C29.6791 184.933 30.1864 184.566 30.7439 184.29C31.8943 183.723 33.0947 183.262 34.3298 182.915C36.8104 182.143 39.3538 181.559 41.8658 180.761C39.2126 180.858 36.5829 181.295 34.0409 182.061C32.7436 182.43 31.5047 182.979 30.3608 183.694C29.7692 184.06 29.2603 184.546 28.8662 185.119C28.6736 185.412 28.5596 185.75 28.5354 186.1C28.5112 186.45 28.5776 186.8 28.728 187.116Z" fill="#263238"/>
<path id="Vector_26" d="M5.492 186.909C7.30692 186.363 9.09045 185.747 10.8677 185.132C12.6449 184.517 14.4159 183.876 16.1868 183.248L21.4809 181.276C23.2456 180.648 25.004 179.97 26.7875 179.336C24.9189 179.642 23.0727 180.072 21.2611 180.623C19.4399 181.138 17.6564 181.766 15.8791 182.406C14.1019 183.047 12.3498 183.75 10.6228 184.51C8.89576 185.27 7.16876 186.017 5.492 186.909Z" fill="#263238"/>
<path id="Vector_27" d="M22.2408 175.084C20.5156 175.288 18.8072 175.615 17.1288 176.064C15.4444 176.496 13.7841 177.018 12.1551 177.627C10.5236 178.228 8.92791 178.922 7.376 179.706C5.81663 180.473 4.31399 181.35 2.87952 182.331C4.49348 181.703 6.0572 180.962 7.6586 180.334C9.26 179.706 10.8551 179.078 12.4691 178.45C14.083 177.822 15.7033 177.276 17.3235 176.704C18.9438 176.133 20.5954 175.624 22.2408 175.084Z" fill="#263238"/>
<path id="Vector_28" d="M19.3896 170.958C16.6043 171.32 13.8785 172.047 11.2822 173.118C8.66323 174.139 6.19055 175.501 3.92828 177.169C6.52192 176.089 9.04021 174.965 11.615 173.954C14.1898 172.942 16.796 171.957 19.3896 170.958Z" fill="#263238"/>
<path id="Vector_29" d="M75.6961 96.9231L46.2932 97.0675C46.2932 97.0675 54.2751 73.4359 61.8739 63.6705C69.4727 53.9051 75.5705 55.1925 76.2488 66.6849C76.927 78.1773 75.6961 96.9231 75.6961 96.9231Z" fill="#EB9C64"/>
<path id="Vector_30" d="M76.2488 66.6849C76.2864 67.2061 76.3116 67.7525 76.3304 68.2988C76.3304 68.5438 76.3304 68.7887 76.3681 69.0399C76.7826 80.5511 75.7024 96.9231 75.7024 96.9231L67.7142 96.967H66.9167L46.2994 97.0801C46.2994 97.0801 49.6844 87.0321 54.1306 77.3735C54.2813 77.0532 54.4258 76.7454 54.589 76.4063C56.8561 71.5582 59.3807 66.8796 61.8676 63.683C69.4726 53.9051 75.5642 55.1988 76.2488 66.6849Z" fill="#EB9C64"/>
<path id="Vector_31" d="M51.8698 97.0424L57.8421 97.0047C55.8573 96.7723 53.8515 96.785 51.8698 97.0424ZM76.029 73.2286C75.8657 72.0606 75.7715 70.8925 75.7024 69.7181C75.6324 67.3922 75.4395 65.0717 75.1247 62.7662C75.0367 62.2324 74.93 61.7048 74.8044 61.1773C74.9174 61.0643 75.0367 60.9638 75.156 60.8445C75.0681 60.6184 74.9802 60.4049 74.886 60.2165C74.7981 60.3107 74.6976 60.3923 74.6097 60.4865C74.4397 59.883 74.2299 59.2914 73.9817 58.7156C73.6394 58.2685 73.2127 57.893 72.7257 57.6103C73.2528 58.467 73.6745 59.3843 73.9817 60.3421C74.0445 60.5493 74.101 60.7566 74.1575 60.9701C72.4563 62.6563 70.4651 64.022 68.2795 65.0018C66.0501 65.9124 63.2869 66.0318 61.2961 64.5497C61.1768 64.713 61.0637 64.87 60.9507 65.0395C61.7811 65.609 62.7195 66.002 63.7079 66.1943C64.6963 66.3866 65.7136 66.374 66.6969 66.1574C69.5794 65.611 72.0412 63.7082 74.1952 61.8179L74.3397 61.6923C75.244 65.5733 74.9049 69.6679 75.514 73.6243C75.7464 75.0938 76.142 76.5759 76.5063 78.058C76.5063 77.2227 76.5063 76.3875 76.5063 75.546C76.2865 74.7547 76.1357 73.9948 76.029 73.2286ZM74.415 91.83C73.5523 92.4196 72.5602 92.7925 71.5228 92.9171C70.4853 93.0418 69.4331 92.9144 68.4553 92.5459C64.0091 91.1204 61.4154 86.8939 57.7353 84.294C56.0274 83.1748 54.2219 82.2121 52.3408 81.4178C52.2592 81.5873 52.1901 81.7632 52.1147 81.939C53.1572 82.4351 54.206 82.9187 55.1919 83.4525C56.0912 83.9269 56.9521 84.4707 57.7667 85.079C58.7189 85.8273 59.6249 86.6326 60.4797 87.4905C62.1816 89.1484 63.8521 90.9131 65.9245 92.1252C67.8085 93.2242 70.063 93.9212 72.2484 93.5005C73.7384 93.1849 75.0712 92.3586 76.0164 91.1643C76.0164 90.7938 76.0541 90.4044 76.0667 90.0025C75.6378 90.7115 75.0771 91.3318 74.415 91.83Z" fill="white"/>
<path id="Vector_32" d="M50.08 90.26C51.964 89.6822 65.5351 88.7842 75.1561 89.4248C75.186 89.4248 75.2148 89.4367 75.236 89.4579C75.2572 89.4791 75.2691 89.5078 75.2691 89.5378C75.2691 89.5678 75.2572 89.5965 75.236 89.6177C75.2148 89.6389 75.186 89.6508 75.1561 89.6508C74.0947 89.7136 52.0896 90.9068 50.08 90.5677C49.8853 90.5614 49.9167 90.3291 50.08 90.26Z" fill="#263238"/>
<path id="Vector_33" d="M77.5613 79.1004C77.5613 79.0805 77.5534 79.0613 77.5392 79.0471C77.5251 79.033 77.5059 79.0251 77.4859 79.0251C77.466 79.0251 77.4468 79.033 77.4327 79.0471C77.4185 79.0613 77.4106 79.0805 77.4106 79.1004C77.1418 80.1004 76.9321 81.1153 76.7826 82.14C76.7386 82.3723 76.7072 82.611 76.6633 82.8433C76.5816 80.3313 76.4623 77.8884 76.3304 75.4266C76.3304 75.3136 76.142 75.3136 76.1483 75.4266C76.2237 83.9612 75.9976 91.7546 75.4763 96.6907L72.9267 96.9042C72.8912 96.9114 72.8593 96.9307 72.8363 96.9587C72.8134 96.9868 72.8009 97.0219 72.8009 97.0581C72.8009 97.0943 72.8134 97.1294 72.8363 97.1575C72.8593 97.1855 72.8912 97.2048 72.9267 97.212L76.1671 97.325C76.3053 97.325 76.8454 90.216 76.7135 84.6143C76.8893 83.8042 77.0777 83.0003 77.2096 82.1839C77.4055 81.1666 77.523 80.1357 77.5613 79.1004Z" fill="#263238"/>
<path id="Vector_34" d="M50.2684 97.0738C48.9433 97.1555 47.6182 97.2245 46.2994 97.2622H46.0357L46.1173 97.0047C46.6323 95.3845 47.1598 93.7705 47.7376 92.1754C48.3153 90.5803 48.8994 88.9789 49.5274 87.4026C50.1554 85.8263 50.7834 84.2626 51.5181 82.7052C52.2529 81.1477 52.9562 79.6217 53.7789 78.1333L51.8949 82.881L50.0863 87.6287L48.2776 92.3827L46.4753 97.168L46.2994 96.9168C47.6182 96.9231 48.9433 96.9922 50.2684 97.0738Z" fill="#263238"/>
<path id="Vector_35" d="M86.1774 69.2283C81.7061 70.7041 73.2658 64.4178 69.6799 59.0421C69.435 58.6716 69.6799 43.047 69.4287 39.9509C69.3722 39.3229 89.3174 42.9779 89.3174 42.9779C89.3174 42.9779 87.9672 49.6472 88.4696 55.048C88.5199 55.5002 90.4981 67.8027 86.1774 69.2283Z" fill="#EB9481"/>
<path id="Vector_36" d="M89.3237 42.9716C89.3237 43.0658 89.2295 43.4552 89.129 44.0832C88.9532 45.1508 88.6895 46.8778 88.5324 48.8371C88.3386 50.896 88.3239 52.9678 88.4885 55.0292C88.4948 55.1726 88.5116 55.3153 88.5387 55.4562V55.5253C88.5827 55.7765 88.6204 56.1156 88.6643 56.5176C88.0443 56.6564 87.4144 56.7467 86.7803 56.7876C76.1609 57.4658 71.4634 44.774 70.0441 39.863L70.3833 39.8944C70.9045 39.9321 71.5953 40.0137 72.4243 40.1205L73.0523 40.2084C74.3773 40.3968 75.9599 40.648 77.6053 40.9118C78.1453 40.9997 78.6854 41.0813 79.238 41.1818C80.4187 41.3891 81.6119 41.59 82.7172 41.7721C83.1945 41.8663 83.6654 41.948 84.105 42.0233C84.5446 42.0987 85.0785 42.1929 85.5243 42.2682L86.1523 42.3813L86.46 42.4441L88.1117 42.7392L88.903 42.8774C89.0153 42.8959 89.1265 42.9211 89.2358 42.9528C89.2672 42.9528 89.2798 42.9528 89.2923 42.9528L89.3237 42.9716Z" fill="#263238"/>
<path id="Vector_37" d="M65.6104 17.1859C63.7264 24.1756 68.0345 44.0392 73.1025 48.3347C80.4626 54.5582 92.1748 54.7906 97.3935 46.0362C102.418 37.552 96.3699 11.7537 90.7367 7.88524C82.4346 2.18928 68.3988 6.8616 65.6104 17.1859Z" fill="#EB9481"/>
<path id="Vector_38" d="M68.493 36.6288C72.0412 35.4858 70.4712 26.2542 70.4712 26.2542C70.4712 26.2542 74.7039 23.7423 74.6474 15.101C74.6474 15.101 79.2192 22.8065 94.0086 18.2724C93.9956 15.5124 93.117 12.8261 91.4966 10.5919C93.4549 12.9268 95.2192 15.4178 96.7718 18.04C96.7718 18.04 98.1346 4.85201 86.617 2.34001C82.0326 1.34149 75.6082 2.86124 66.6153 9.4992C66.6153 9.4992 63.6699 3.92884 62.6714 4.90852C61.6729 5.8882 64.8506 11.0127 64.8506 11.0127C64.8506 11.0127 60.2787 10.4475 59.7135 11.4837C59.2237 12.3754 63.5946 12.7397 63.5946 12.7397C63.5946 12.7397 57.3146 16.0367 59.8266 23.4785C62.0811 30.286 66.7346 37.2003 68.493 36.6288Z" fill="#263238"/>
<path id="Vector_39" d="M64.7752 12.388C62.8528 12.6664 61.0985 13.6378 59.8425 15.1194C58.5864 16.6011 57.9152 18.4907 57.9551 20.4327C58.0242 22.6495 58.985 24.8852 60.0401 26.8069C61.2282 28.8468 62.674 30.7253 64.3419 32.3961C64.4298 32.4903 64.568 32.3333 64.4738 32.2391C63.0022 30.6518 61.7842 28.8471 60.8628 26.8885C59.8766 25.063 59.1897 23.0912 58.828 21.0481C58.586 19.1462 59.0676 17.2228 60.1773 15.6594C61.2871 14.096 62.9439 13.0068 64.8192 12.6078C64.8451 12.599 64.867 12.581 64.8807 12.5572C64.8944 12.5335 64.899 12.5055 64.8936 12.4786C64.8882 12.4517 64.8732 12.4277 64.8514 12.411C64.8297 12.3944 64.8026 12.3862 64.7752 12.388Z" fill="#263238"/>
<path id="Vector_40" d="M77.6053 1.78108C75.1349 2.82248 72.8123 4.18436 70.6973 5.83167C68.6111 7.30041 66.7928 9.11662 65.3216 11.2011C65.2525 11.3078 65.3907 11.4334 65.4786 11.333C68.7756 7.79732 73.0711 5.12204 77.4106 3.01196C81.4486 1.03376 86.4915 0.13572 90.3599 3.01196C90.3656 3.01992 90.3729 3.02646 90.3815 3.03108C90.3901 3.03569 90.3996 3.03825 90.4094 3.03855C90.4191 3.03885 90.4288 3.03687 90.4376 3.03278C90.4465 3.0287 90.4542 3.02261 90.4603 3.01501C90.4664 3.0074 90.4706 2.99848 90.4727 2.98896C90.4747 2.97944 90.4745 2.96957 90.4721 2.96014C90.4697 2.9507 90.4651 2.94196 90.4587 2.93461C90.4523 2.92725 90.4443 2.92148 90.4353 2.91775C86.8683 -0.172006 81.7312 0.110595 77.6053 1.78108Z" fill="#263238"/>
<path id="Vector_41" d="M70.6596 33.4574C70.6596 33.4574 66.0375 27.0581 63.1236 28.716C60.2097 30.3739 63.7516 39.6934 67.2181 40.9243C67.652 41.1127 68.1194 41.2115 68.5923 41.2148C69.0653 41.218 69.534 41.1257 69.9704 40.9433C70.4068 40.7609 70.8018 40.4921 71.1318 40.1533C71.4617 39.8144 71.7198 39.4123 71.8904 38.9712L70.6596 33.4574Z" fill="#EB9481"/>
<path id="Vector_42" d="M64.2037 31.3599C64.1472 31.3599 64.1409 31.4352 64.2037 31.4541C66.6341 32.3961 67.9403 34.5941 68.8635 36.924C68.135 36.0448 67.149 35.5675 65.9621 36.4404C65.8993 36.4844 65.9621 36.5848 66.0249 36.566C66.4479 36.4243 66.9044 36.4171 67.3317 36.5453C67.759 36.6735 68.1361 36.9308 68.4113 37.2819C68.8646 37.868 69.256 38.4993 69.5794 39.1659C69.6924 39.3794 70.0818 39.2601 70.0001 39.0089C69.999 38.9922 69.999 38.9754 70.0001 38.9587C69.9813 35.894 67.5196 31.6236 64.2037 31.3599Z" fill="#263238"/>
<path id="Vector_43" d="M86.3219 28.5904C86.3219 28.5464 86.234 28.672 86.2403 28.7286C86.5229 30.0474 86.6171 31.6111 85.4929 32.2642C85.4862 32.2671 85.4805 32.272 85.4765 32.2781C85.4724 32.2842 85.4703 32.2914 85.4703 32.2987C85.4703 32.3061 85.4724 32.3133 85.4765 32.3194C85.4805 32.3255 85.4862 32.3304 85.4929 32.3333C86.9436 31.856 86.7992 29.8024 86.3219 28.5904Z" fill="#263238"/>
<path id="Vector_44" d="M84.89 27.416C82.7297 27.6358 83.32 31.9502 85.3234 31.7492C87.3267 31.5483 86.705 27.2339 84.89 27.416Z" fill="#263238"/>
<path id="Vector_45" d="M93.927 27.033C93.927 26.9827 94.04 27.0832 94.0463 27.1397C94.1907 28.4774 94.5801 29.9908 95.8486 30.2797C95.8863 30.2797 95.8926 30.3551 95.8486 30.3551C94.3414 30.3425 93.8453 28.3266 93.927 27.033Z" fill="#263238"/>
<path id="Vector_46" d="M94.9317 25.4755C97.0607 25.0171 97.8205 29.3063 95.8486 29.7271C93.8767 30.1478 93.1482 25.8586 94.9317 25.4755Z" fill="#263238"/>
<path id="Vector_47" d="M82.8679 26.204C83.412 25.9587 83.9424 25.6841 84.4567 25.3813C85.0581 25.1739 85.5731 24.7716 85.92 24.2384C85.9959 24.0509 86.0082 23.8436 85.9549 23.6484C85.9015 23.4533 85.7856 23.281 85.6248 23.1582C85.2662 22.9646 84.8624 22.8701 84.4551 22.8844C84.0477 22.8988 83.6516 23.0214 83.3075 23.2398C82.5452 23.5724 81.934 24.1769 81.593 24.9354C81.5261 25.1132 81.5119 25.3066 81.5522 25.4923C81.5925 25.6779 81.6856 25.848 81.8202 25.982C81.9549 26.116 82.1254 26.2083 82.3113 26.2476C82.4972 26.287 82.6904 26.2719 82.8679 26.204Z" fill="#263238"/>
<path id="Vector_48" d="M95.9742 23.1142C95.3784 23.0748 94.7852 23.0035 94.197 22.9007C93.5614 22.9135 92.9392 22.7171 92.426 22.3418C92.2878 22.1929 92.203 22.0024 92.1848 21.8C92.1666 21.5977 92.2161 21.3951 92.3256 21.224C92.5922 20.9172 92.936 20.6874 93.3214 20.5582C93.7067 20.429 94.1196 20.4052 94.5173 20.4892C95.3509 20.5302 96.1382 20.8846 96.7216 21.4814C96.8487 21.6235 96.9316 21.7995 96.9601 21.988C96.9887 22.1764 96.9616 22.3691 96.8823 22.5424C96.803 22.7157 96.6748 22.8621 96.5135 22.9637C96.3522 23.0653 96.1648 23.1176 95.9742 23.1142Z" fill="#263238"/>
<path id="Vector_49" d="M86.5731 40.4784C86.9373 40.7485 87.3141 41.1064 87.8291 41.1064C88.3245 41.0296 88.7978 40.8476 89.217 40.5726C89.2609 40.5726 89.3111 40.5726 89.286 40.6354C89.1307 40.9239 88.9007 41.1652 88.62 41.3343C88.3394 41.5033 88.0185 41.5938 87.6909 41.5963C87.4084 41.5619 87.1424 41.4445 86.9267 41.259C86.7109 41.0734 86.5551 40.828 86.4789 40.5538C86.4224 40.4784 86.504 40.4408 86.5731 40.4784Z" fill="#263238"/>
<path id="Vector_50" d="M87.4272 36.2834C87.8391 36.7656 88.3463 37.1574 88.9169 37.434C89.4876 37.7107 90.1093 37.8663 90.743 37.8911C91.2958 37.9192 91.8498 37.8685 92.3884 37.7404C92.4926 37.7226 92.5955 37.6975 92.6961 37.665L92.985 37.5771C93.0538 37.5539 93.1132 37.5088 93.154 37.4487C93.1948 37.3886 93.2148 37.3168 93.211 37.2442L93.1796 37.1061V36.9868C93.0603 35.9568 92.7463 34.4057 92.7463 34.4057C93.1482 34.5438 95.183 35.1404 95.0825 34.6066C94.2033 30.2106 93.2299 25.2871 91.4275 21.0795C91.4184 21.047 91.3967 21.0195 91.3672 21.003C91.3378 20.9865 91.303 20.9824 91.2705 20.9916C91.238 21.0008 91.2105 21.0224 91.194 21.0519C91.1776 21.0813 91.1734 21.1161 91.1826 21.1486C91.8608 25.4253 93.2801 29.5512 94.0274 33.8342C93.3035 33.6073 92.5504 33.4867 91.7918 33.4762C91.6536 33.539 92.4512 36.4655 92.47 36.9302C92.4715 36.947 92.4715 36.9638 92.47 36.9805C90.7744 37.4389 89.3991 37.0935 87.559 36.1641C87.4272 36.0824 87.333 36.1892 87.4272 36.2834Z" fill="#263238"/>
<path id="Vector_51" d="M91.7101 37.3008C91.2476 38.1128 90.5836 38.7919 89.7822 39.2727C89.3376 39.5225 88.8256 39.6258 88.3189 39.5678C87.2137 39.436 87.0629 38.4626 87.132 37.5959C87.1788 37.1355 87.28 36.6823 87.4334 36.2457C88.71 37.0446 90.2085 37.4143 91.7101 37.3008Z" fill="#263238"/>
<path id="Vector_52" d="M89.7822 39.2727C89.3376 39.5225 88.8256 39.6258 88.3189 39.5678C87.2137 39.436 87.0629 38.4626 87.132 37.5959C88.2938 37.5582 89.531 38.1737 89.7822 39.2727Z" fill="#FF9ABB"/>
</g>
</svg>
