<svg width="245" height="166" viewBox="0 0 245 166" fill="none" xmlns="http://www.w3.org/2000/svg">
<g id="freepik--background-complete--inject-2">
<path id="Vector" d="M32.5674 52.3367L27.6633 88.2769L84.3364 96.0099L89.2404 60.0697L32.5674 52.3367Z" fill="#EBEBEB"/>
<path id="Vector_2" d="M32.568 52.3297C34.5588 54.8417 36.606 57.2469 38.6156 59.715C40.6252 62.183 42.6976 64.5694 44.7575 66.9684C46.899 69.4804 49.0593 71.9924 51.2133 74.4478C51.2824 74.5232 51.3389 74.6048 51.408 74.6865C53.3213 76.8719 55.2409 79.0553 57.1668 81.2365L57.4494 81.5505L57.801 81.3244C60.2377 79.7377 62.6701 78.1426 65.0984 76.5391C65.1849 76.4891 65.2688 76.4346 65.3496 76.3758C68.1086 74.5672 70.8551 72.7397 73.589 70.8934C76.2014 69.135 78.8265 67.3452 81.4327 65.5554C84.0389 63.7656 86.6514 61.9381 89.2387 60.0604C86.5509 61.6052 83.8882 63.2443 81.2192 64.8394C78.5502 66.4346 75.8874 68.0988 73.231 69.7692C70.2752 71.6072 67.3194 73.4765 64.3636 75.3773C62.1489 76.784 59.9341 78.1991 57.7194 79.6226C55.9798 77.6632 54.2277 75.6913 52.4693 73.7508C50.1332 71.1467 47.7865 68.5551 45.4294 65.9761C43.311 63.6651 41.1862 61.3624 39.0552 59.0681C36.8635 56.8324 34.7409 54.5402 32.568 52.3297Z" fill="white"/>
<path id="Vector_3" d="M64.1564 76.1874C64.1789 76.209 64.1999 76.2321 64.2192 76.2565L65.0105 77.1357C66.2665 78.5298 67.5664 79.8738 68.8915 81.1926C70.5118 82.8128 72.176 84.3891 73.8527 85.9528C75.5295 87.5165 77.2376 89.0237 78.9898 90.5058C80.7419 91.9879 82.5066 93.4574 84.3529 94.8264C82.8394 93.0869 81.2129 91.4415 79.624 89.8024C78.0352 88.1634 76.3333 86.6059 74.6691 85.0485C73.0049 83.491 71.2716 81.965 69.5258 80.4766C68.1379 79.2897 66.7186 78.1217 65.2554 77.0038C64.9205 76.7401 64.5813 76.4826 64.238 76.2314L64.1564 76.1874Z" fill="white"/>
<path id="Vector_4" d="M27.9522 87.1397C30.1062 86.3108 32.2101 85.375 34.2825 84.4142C36.3548 83.4534 38.4084 82.4234 40.4557 81.3935C42.503 80.3636 44.5188 79.2709 46.5096 78.1405C48.1361 77.2236 49.7438 76.2565 51.3201 75.2768C51.6655 75.0633 51.9983 74.8498 52.3312 74.6488L52.4065 74.5986C52.3756 74.6065 52.3432 74.6065 52.3123 74.5986L51.1191 75.0821C49.4172 75.7666 47.7468 76.5203 46.0951 77.2864C44.0164 78.2535 41.9692 79.2709 39.9282 80.3134C37.8872 81.3558 35.8713 82.436 33.8742 83.5727C31.8772 84.7094 29.8802 85.8649 27.9522 87.1397Z" fill="white"/>
<path id="Vector_5" d="M47.0101 0.326979L0.139923 12.2218L7.68309 41.9448L54.5533 30.05L47.0101 0.326979Z" fill="#EBEBEB"/>
<path id="Vector_6" d="M0.138092 12.2193C2.49309 13.5507 4.86065 14.7941 7.22193 16.0878C9.58321 17.3815 11.9571 18.5998 14.3309 19.8558C16.8052 21.1495 19.2858 22.4118 21.7664 23.674L21.9925 23.7996L28.5802 27.1092L28.9005 27.2662L29.1077 26.9773C30.5144 24.9615 31.9086 22.9393 33.3091 20.9171C33.3608 20.8485 33.409 20.7772 33.4535 20.7036C35.0444 18.4177 36.6186 16.115 38.176 13.7956C39.6707 11.5913 41.159 9.35565 42.6348 7.12625C44.1106 4.89685 45.5802 2.63605 47.0308 0.350128C45.4106 2.40997 43.8469 4.53889 42.258 6.63013C40.6692 8.72137 39.118 10.8754 37.5606 13.0232C35.8273 15.4054 34.1003 17.8085 32.3796 20.2326C31.0943 22.0371 29.8069 23.8478 28.5174 25.6648C26.5078 24.66 24.5108 23.6866 22.52 22.7195C19.8573 21.4132 17.1946 20.1238 14.5318 18.851C12.1455 17.7143 9.75277 16.5839 7.36009 15.4786C4.96741 14.3734 2.54961 13.2618 0.138092 12.2193Z" fill="white"/>
<path id="Vector_7" d="M32.4675 20.892C32.4892 20.9069 32.5123 20.9196 32.5366 20.9297L33.4346 21.3693C34.8623 22.0601 36.3046 22.709 37.7616 23.3161C39.5451 24.0822 41.3475 24.7856 43.1561 25.4764C44.9647 26.1672 46.7859 26.814 48.626 27.4232C50.466 28.0324 52.3186 28.6227 54.2026 29.1125C52.4631 28.227 50.6921 27.442 48.9149 26.6822C47.1376 25.9223 45.3164 25.2189 43.5141 24.5281C41.7117 23.8373 39.8779 23.1842 38.0379 22.575C36.5747 22.0852 35.0926 21.6142 33.5916 21.1997C33.2462 21.0992 32.9009 21.0113 32.5492 20.9171L32.4675 20.892Z" fill="white"/>
<path id="Vector_8" d="M7.55478 40.988C8.98034 39.6629 10.3305 38.2625 11.6493 36.8432C12.9681 35.4239 14.2618 33.9795 15.5367 32.5288C16.8115 31.0782 18.0487 29.571 19.2481 28.0575C20.2341 26.8015 21.2012 25.5455 22.1181 24.2895L22.7021 23.4668C22.7021 23.4668 22.7021 23.4228 22.7461 23.404L22.6833 23.4605C22.4195 23.7117 22.1558 23.9566 21.8983 24.2141C20.7805 25.288 19.7066 26.4058 18.6453 27.5425C17.3202 28.9555 16.0391 30.4062 14.7705 31.8632C13.5019 33.3201 12.2585 34.8148 11.059 36.3345C9.85954 37.8543 8.66006 39.3552 7.55478 40.988Z" fill="white"/>
<path id="Vector_9" d="M241.25 129.228L193.223 134.861L196.795 165.317L244.822 159.684L241.25 129.228Z" fill="#EBEBEB"/>
<path id="Vector_10" d="M193.217 134.874C195.377 136.501 197.562 138.045 199.729 139.647C201.896 141.248 204.094 142.755 206.285 144.288C208.477 145.82 210.863 147.472 213.156 149.048L213.363 149.199C215.385 150.584 217.416 151.968 219.455 153.35L219.756 153.544L219.995 153.287C221.669 151.474 223.323 149.655 224.956 147.83C225.019 147.771 225.078 147.708 225.132 147.641C227.003 145.581 228.866 143.505 230.721 141.411C232.492 139.427 234.256 137.405 236.015 135.389C237.773 133.373 239.525 131.326 241.246 129.241C239.362 131.075 237.541 133.009 235.688 134.849C233.836 136.689 232.015 138.617 230.187 140.57C228.156 142.697 226.132 144.851 224.114 147.032C222.601 148.652 221.094 150.285 219.58 151.912C217.734 150.656 215.887 149.431 214.041 148.213C211.579 146.567 209.109 144.939 206.631 143.327C204.42 141.882 202.199 140.455 199.968 139.044C197.688 137.656 195.465 136.224 193.217 134.874Z" fill="white"/>
<path id="Vector_11" d="M224.108 147.748L224.171 147.792C224.447 147.98 224.73 148.169 225.006 148.345C226.331 149.224 227.675 150.053 229.044 150.857C230.708 151.843 232.404 152.778 234.106 153.708C235.808 154.637 237.528 155.504 239.274 156.352C241.02 157.199 242.772 158.028 244.575 158.757C242.973 157.652 241.315 156.64 239.651 155.661C237.987 154.681 236.279 153.733 234.583 152.81C232.887 151.887 231.154 151.001 229.415 150.153C228.027 149.475 226.614 148.816 225.182 148.206C224.855 148.064 224.523 147.926 224.183 147.792L224.108 147.748Z" fill="white"/>
<path id="Vector_12" d="M196.79 164.346C198.379 163.216 199.93 162.004 201.393 160.779C202.857 159.554 204.357 158.267 205.789 157.011C207.221 155.755 208.666 154.417 210.06 153.067C211.196 151.974 212.314 150.863 213.394 149.707L214.085 148.966C214.103 148.949 214.12 148.93 214.135 148.91C214.115 148.929 214.092 148.944 214.066 148.954L213.193 149.582C211.937 150.505 210.732 151.466 209.526 152.452C208.025 153.708 206.568 154.964 205.13 156.22C203.692 157.476 202.254 158.813 200.859 160.164C199.465 161.514 198.096 162.895 196.79 164.346Z" fill="white"/>
<path id="Vector_13" d="M203.466 65.2414L195.22 65.4172L191.038 65.4863C189.637 65.5177 188.23 65.4863 186.83 65.524H186.554V65.2414L186.516 58.214V57.9H186.83L195.145 57.9377C197.914 57.9377 200.69 58.0131 203.459 58.0445H203.635V58.214C203.635 59.4072 203.585 60.5942 203.554 61.7622L203.466 65.2414ZM203.466 65.2414L203.384 61.712C203.353 60.5376 203.315 59.3821 203.302 58.2329L203.472 58.4024C200.702 58.4338 197.927 58.5029 195.157 58.5092L186.842 58.5469L187.156 58.2329V65.2602L186.874 64.9776C188.243 64.9776 189.612 64.9776 190.987 65.0153L195.12 65.0844L203.466 65.2414Z" fill="#EBEBEB"/>
<path id="Vector_14" d="M194.19 74.1024L185.944 74.2783L181.762 74.3474C180.368 74.3474 178.961 74.3474 177.561 74.385H177.284V74.1024L177.253 67.0751V66.736H177.567L185.882 66.7737C188.651 66.7737 191.427 66.849 194.196 66.8804H194.372V67.05C194.372 68.2432 194.322 69.4301 194.291 70.5982L194.19 74.1024ZM194.19 74.1024L194.102 70.5542C194.071 69.3799 194.033 68.2244 194.021 67.0751L194.19 67.2447C191.421 67.2761 188.645 67.3452 185.875 67.3514L177.561 67.3891L177.875 67.0751L177.837 74.1024L177.561 73.8198C178.93 73.8198 180.299 73.8198 181.668 73.8575L185.8 73.9266L194.19 74.1024Z" fill="#EBEBEB"/>
<path id="Vector_15" d="M212.741 74.1024L204.502 74.2783L200.319 74.3474C198.919 74.3474 197.512 74.3474 196.112 74.385H195.848V74.1024L195.81 67.0751V66.736H196.124L204.439 66.7737C207.215 66.7737 209.984 66.849 212.754 66.8804H212.93V67.05C212.93 68.2432 212.873 69.4301 212.842 70.5982L212.741 74.1024ZM212.741 74.1024L212.653 70.5542C212.653 69.3799 212.584 68.2244 212.572 67.0751L212.741 67.2447C209.972 67.2761 207.202 67.3452 204.426 67.3514L196.112 67.3891L196.426 67.0751L196.394 74.1024L196.112 73.8198C197.481 73.8198 198.85 73.8198 200.225 73.8575L204.357 73.9266L212.741 74.1024Z" fill="#EBEBEB"/>
</g>
</svg>
