<svg width="13" height="12" viewBox="0 0 13 12" fill="none" xmlns="http://www.w3.org/2000/svg">
<g id="ph:copyright-bold">
<path id="Vector" d="M6.5 1C5.49873 1 4.51995 1.29691 3.68743 1.85319C2.8549 2.40946 2.20603 3.20011 1.82286 4.12517C1.43969 5.05022 1.33944 6.06812 1.53478 7.05015C1.73011 8.03217 2.21227 8.93423 2.92027 9.64223C3.62828 10.3502 4.53033 10.8324 5.51236 11.0277C6.49439 11.2231 7.51229 11.1228 8.43734 10.7396C9.36239 10.3565 10.153 9.7076 10.7093 8.87507C11.2656 8.04255 11.5625 7.06377 11.5625 6.0625C11.561 4.7203 11.0272 3.4335 10.0781 2.48442C9.12901 1.53534 7.8422 1.00149 6.5 1ZM6.5 10C5.72124 10 4.95996 9.76907 4.31244 9.33641C3.66493 8.90375 3.16025 8.2888 2.86223 7.56932C2.56421 6.84983 2.48623 6.05813 2.63816 5.29433C2.79009 4.53053 3.1651 3.82894 3.71577 3.27827C4.26644 2.7276 4.96803 2.35259 5.73183 2.20066C6.49563 2.04873 7.28733 2.1267 8.00682 2.42472C8.7263 2.72274 9.34126 3.22742 9.77391 3.87494C10.2066 4.52246 10.4375 5.28374 10.4375 6.0625C10.4364 7.10645 10.0212 8.10732 9.283 8.8455C8.54482 9.58368 7.54395 9.99888 6.5 10ZM8.44953 7.52547C8.14248 7.93457 7.7145 8.2367 7.22622 8.38909C6.73793 8.54147 6.21407 8.53639 5.72884 8.37454C5.2436 8.2127 4.82158 7.90231 4.52253 7.48732C4.22348 7.07233 4.06256 6.57378 4.06256 6.06227C4.06256 5.55075 4.22348 5.0522 4.52253 4.63721C4.82158 4.22222 5.2436 3.91183 5.72884 3.74999C6.21407 3.58815 6.73793 3.58306 7.22622 3.73544C7.7145 3.88783 8.14248 4.18996 8.44953 4.59906C8.49552 4.65797 8.52931 4.72544 8.54893 4.79755C8.56855 4.86966 8.5736 4.94496 8.5638 5.01905C8.55399 5.09313 8.52952 5.16452 8.49181 5.22904C8.4541 5.29356 8.40392 5.34992 8.34419 5.39483C8.28445 5.43974 8.21637 5.47229 8.14392 5.49059C8.07146 5.5089 7.99609 5.51258 7.92219 5.50142C7.8483 5.49026 7.77737 5.4645 7.71354 5.42562C7.64972 5.38674 7.59428 5.33554 7.55047 5.275C7.38519 5.05462 7.15476 4.89184 6.89182 4.8097C6.62888 4.72756 6.34676 4.73024 6.08542 4.81735C5.82409 4.90446 5.59679 5.07159 5.43572 5.29507C5.27465 5.51854 5.18797 5.78703 5.18797 6.0625C5.18797 6.33797 5.27465 6.60646 5.43572 6.82993C5.59679 7.05341 5.82409 7.22054 6.08542 7.30765C6.34676 7.39476 6.62888 7.39744 6.89182 7.3153C7.15476 7.23316 7.38519 7.07038 7.55047 6.85C7.59391 6.78857 7.64923 6.73648 7.71315 6.69681C7.77708 6.65714 7.84831 6.6307 7.92264 6.61905C7.99697 6.60739 8.07288 6.61077 8.14587 6.62898C8.21887 6.64718 8.28748 6.67985 8.34763 6.72504C8.40778 6.77023 8.45825 6.82703 8.49606 6.89207C8.53387 6.95712 8.55825 7.02909 8.56775 7.10372C8.57725 7.17835 8.57168 7.25413 8.55138 7.32657C8.53107 7.39901 8.49644 7.46665 8.44953 7.52547Z" fill="#2B2B2B"/>
</g>
</svg>
