<svg width="16" height="16" viewBox="0 0 16 16" fill="none" xmlns="http://www.w3.org/2000/svg">
<g id="mdi:youtube">
<rect width="16" height="16" rx="8" fill="#FF0000"/>
<path id="Vector" d="M6.42615 10.3427L10.5089 7.99987L6.42615 5.65701V10.3427ZM15.52 4.22787C15.6223 4.59492 15.6931 5.08692 15.7403 5.71168C15.7953 6.33644 15.8189 6.8753 15.8189 7.34387L15.8661 7.99987C15.8661 9.71016 15.7403 10.9675 15.52 11.7719C15.3233 12.4747 14.8671 12.9277 14.1591 13.1229C13.7893 13.2244 13.1128 13.2947 12.0744 13.3416C11.0517 13.3963 10.1156 13.4197 9.25028 13.4197L7.99948 13.4665C4.70335 13.4665 2.65015 13.3416 1.83988 13.1229C1.13188 12.9277 0.675613 12.4747 0.478946 11.7719C0.376679 11.4048 0.305879 10.9128 0.258679 10.2881C0.203613 9.6633 0.180012 9.12444 0.180012 8.65587L0.132812 7.99987C0.132812 6.28958 0.258679 5.03225 0.478946 4.22787C0.675613 3.52501 1.13188 3.07206 1.83988 2.87682C2.20961 2.7753 2.88615 2.70501 3.92455 2.65816C4.94721 2.60349 5.88335 2.58006 6.74868 2.58006L7.99948 2.5332C11.2956 2.5332 13.3488 2.65816 14.1591 2.87682C14.8671 3.07206 15.3233 3.52501 15.52 4.22787Z" fill="#FF0000"/>
<path id="Vector_2" d="M6 11.5L11 8.5L6 5.5V11.5Z" fill="white"/>
</g>
</svg>
