<svg width="16" height="16" viewBox="0 0 16 16" fill="none" xmlns="http://www.w3.org/2000/svg">
<g id="devicon:linkedin">
<g clip-path="url(#clip0_135_2085)">
<path id="Vector" d="M14.8197 6.05898e-05H1.18033C0.870861 -0.00308887 0.572783 0.116656 0.3515 0.333019C0.130218 0.549383 0.00380476 0.844693 0 1.15415V14.8485C0.00449283 15.1575 0.131208 15.4521 0.352416 15.6679C0.573623 15.8837 0.871309 16.0031 1.18033 15.9999H14.8197C15.1292 16.0024 15.427 15.8822 15.6482 15.6657C15.8694 15.4492 15.9959 15.154 16 14.8445V1.15022C15.9945 0.841666 15.8674 0.547764 15.6464 0.332393C15.4254 0.117023 15.1283 -0.0024078 14.8197 6.05898e-05Z" fill="#0076B2"/>
<path id="Vector_2" d="M5.11536 6.82611H6.56615V11.5H5.11536V6.82611ZM5.84115 4.5C6.00755 4.5 6.17021 4.54942 6.30856 4.64199C6.4469 4.73457 6.55471 4.86616 6.61835 5.0201C6.682 5.17404 6.69861 5.34342 6.66609 5.50682C6.63356 5.67021 6.55337 5.82028 6.43566 5.93803C6.31794 6.05579 6.16798 6.13594 6.00476 6.16834C5.84154 6.20075 5.67239 6.18396 5.5187 6.12009C5.36502 6.05622 5.2337 5.94815 5.14137 5.80954C5.04904 5.67093 4.99984 5.50802 5 5.34141C5.00021 5.11818 5.08893 4.90417 5.24665 4.7464C5.40438 4.58862 5.6182 4.5 5.84115 4.5ZM7.4762 6.82611H8.8669V7.4678H8.88613C9.08 7.10044 9.55264 6.71302 10.2584 6.71302C11.7276 6.70981 12 7.67795 12 8.93325V11.5H10.5492V9.22602C10.5492 8.6846 10.5396 7.98757 9.79538 7.98757C9.05116 7.98757 8.92458 8.57792 8.92458 9.19073V11.5H7.4762V6.82611Z" fill="white"/>
</g>
</g>
<defs>
<clipPath id="clip0_135_2085">
<rect width="16" height="16" rx="8" fill="white"/>
</clipPath>
</defs>
</svg>
