<svg width="16" height="16" viewBox="0 0 16 16" fill="none" xmlns="http://www.w3.org/2000/svg">
<g id="skill-icons:instagram">
<g clip-path="url(#clip0_135_2096)">
<rect width="16" height="16" rx="8" fill="white"/>
<g id="Group">
<path id="Vector" d="M12.25 0H3.75C1.67893 0 0 1.67893 0 3.75V12.25C0 14.3211 1.67893 16 3.75 16H12.25C14.3211 16 16 14.3211 16 12.25V3.75C16 1.67893 14.3211 0 12.25 0Z" fill="url(#paint0_radial_135_2096)"/>
<path id="Vector_2" d="M12.25 0H3.75C1.67893 0 0 1.67893 0 3.75V12.25C0 14.3211 1.67893 16 3.75 16H12.25C14.3211 16 16 14.3211 16 12.25V3.75C16 1.67893 14.3211 0 12.25 0Z" fill="url(#paint1_radial_135_2096)"/>
<path id="Vector_3" d="M7.99937 2.87988C6.60888 2.87988 6.43434 2.88598 5.88824 2.91081C5.34316 2.93579 4.97109 3.02206 4.64556 3.14868C4.30877 3.27944 4.02312 3.45439 3.73855 3.73906C3.45373 4.02368 3.27878 4.30932 3.1476 4.64596C3.02063 4.97159 2.93425 5.34381 2.90973 5.88862C2.88531 6.43477 2.87891 6.60936 2.87891 7.99988C2.87891 9.39041 2.88505 9.56439 2.90983 10.1105C2.93492 10.6555 3.02119 11.0276 3.14771 11.3531C3.27857 11.6899 3.45352 11.9756 3.7382 12.2601C4.02271 12.545 4.30836 12.7203 4.6449 12.8511C4.97068 12.9777 5.3428 13.064 5.88778 13.089C6.43393 13.1138 6.60831 13.1199 7.99875 13.1199C9.3894 13.1199 9.56337 13.1138 10.1095 13.089C10.6545 13.064 11.027 12.9777 11.3528 12.8511C11.6895 12.7203 11.9747 12.545 12.2592 12.2601C12.544 11.9756 12.7189 11.6899 12.8501 11.3533C12.976 11.0276 13.0624 10.6554 13.088 10.1106C13.1125 9.56449 13.1189 9.39041 13.1189 7.99988C13.1189 6.60936 13.1125 6.43487 13.088 5.88872C13.0624 5.34365 12.976 4.97164 12.8501 4.64611C12.7189 4.30932 12.544 4.02368 12.2592 3.73906C11.9744 3.45429 11.6896 3.27934 11.3525 3.14873C11.0261 3.02206 10.6538 2.93574 10.1088 2.91081C9.56261 2.88598 9.38873 2.87988 7.99778 2.87988H7.99937ZM7.54005 3.80255C7.6764 3.80234 7.82851 3.80255 7.99937 3.80255C9.36646 3.80255 9.52846 3.80746 10.0683 3.83199C10.5675 3.85482 10.8385 3.93823 11.0189 4.00832C11.2579 4.10109 11.4282 4.21204 11.6073 4.39129C11.7865 4.57049 11.8974 4.74114 11.9905 4.98009C12.0606 5.16031 12.1441 5.43126 12.1668 5.93045C12.1913 6.4702 12.1966 6.63229 12.1966 7.99871C12.1966 9.36512 12.1913 9.52727 12.1668 10.067C12.144 10.5662 12.0606 10.8371 11.9905 11.0174C11.8977 11.2563 11.7865 11.4265 11.6073 11.6056C11.4281 11.7848 11.258 11.8957 11.0189 11.9885C10.8387 12.0589 10.5675 12.1421 10.0683 12.1649C9.52856 12.1894 9.36646 12.1948 7.99937 12.1948C6.63223 12.1948 6.47018 12.1894 5.93048 12.1649C5.43128 12.1419 5.16033 12.0585 4.97969 11.9884C4.74079 11.8955 4.57009 11.7847 4.39089 11.6055C4.21169 11.4263 4.10079 11.256 4.00776 11.017C3.93767 10.8367 3.85416 10.5657 3.83143 10.0666C3.80691 9.52681 3.80199 9.36471 3.80199 7.99743C3.80199 6.63019 3.80691 6.46892 3.83143 5.92917C3.85427 5.42998 3.93767 5.15903 4.00776 4.97855C4.10059 4.7396 4.21169 4.56895 4.39094 4.38976C4.57014 4.21056 4.74079 4.09961 4.97974 4.00663C5.16022 3.93623 5.43128 3.85303 5.93048 3.83009C6.4028 3.80874 6.58584 3.80234 7.54005 3.80127V3.80255ZM10.7324 4.65267C10.3932 4.65267 10.118 4.92761 10.118 5.26685C10.118 5.60605 10.3932 5.88125 10.7324 5.88125C11.0716 5.88125 11.3468 5.60605 11.3468 5.26685C11.3468 4.92766 11.0716 4.65246 10.7324 4.65246V4.65267ZM7.99937 5.37053C6.54734 5.37053 5.37004 6.54781 5.37004 7.99988C5.37004 9.45195 6.54734 10.6287 7.99937 10.6287C9.45145 10.6287 10.6283 9.45195 10.6283 7.99988C10.6283 6.54787 9.45135 5.37053 7.99927 5.37053H7.99937ZM7.99937 6.2932C8.94191 6.2932 9.70607 7.05725 9.70607 7.99988C9.70607 8.94242 8.94191 9.70657 7.99937 9.70657C7.05678 9.70657 6.29272 8.94242 6.29272 7.99988C6.29272 7.05725 7.05678 6.2932 7.99937 6.2932Z" fill="white"/>
</g>
</g>
</g>
<defs>
<radialGradient id="paint0_radial_135_2096" cx="0" cy="0" r="1" gradientUnits="userSpaceOnUse" gradientTransform="translate(4.25 17.2323) rotate(-90) scale(15.8572 14.7484)">
<stop stop-color="#FFDD55"/>
<stop offset="0.1" stop-color="#FFDD55"/>
<stop offset="0.5" stop-color="#FF543E"/>
<stop offset="1" stop-color="#C837AB"/>
</radialGradient>
<radialGradient id="paint1_radial_135_2096" cx="0" cy="0" r="1" gradientUnits="userSpaceOnUse" gradientTransform="translate(-2.68006 1.15256) rotate(78.681) scale(7.08825 29.218)">
<stop stop-color="#3771C8"/>
<stop offset="0.128" stop-color="#3771C8"/>
<stop offset="1" stop-color="#6600FF" stop-opacity="0"/>
</radialGradient>
<clipPath id="clip0_135_2096">
<rect width="16" height="16" rx="8" fill="white"/>
</clipPath>
</defs>
</svg>
