<svg width="97" height="18" viewBox="0 0 97 18" fill="none" xmlns="http://www.w3.org/2000/svg">
<path id="Union" fill-rule="evenodd" clip-rule="evenodd" d="M4.32 16.44C5.712 17.144 7.32 17.496 9.144 17.496C11.656 17.496 13.768 16.976 15.48 15.936V7.584H8.88V10.56H11.448V13.248C10.872 13.536 10.16 13.68 9.312 13.68C7.792 13.68 6.584 13.24 5.688 12.36C4.808 11.48 4.368 10.28 4.368 8.76C4.368 7.784 4.592 6.928 5.04 6.192C5.488 5.456 6.096 4.896 6.864 4.512C7.648 4.112 8.536 3.912 9.528 3.912C10.68 3.912 11.696 4.04 12.576 4.296C13.472 4.536 14.272 4.936 14.976 5.496V1.464C14.176 0.952 13.304 0.584 12.36 0.36C11.432 0.12 10.36 0 9.144 0C7.32 0 5.712 0.36 4.32 1.08C2.944 1.784 1.88 2.8 1.128 4.128C0.376 5.44 0 6.984 0 8.76C0 10.536 0.376 12.088 1.128 13.416C1.88 14.728 2.944 15.736 4.32 16.44ZM20.0475 16.728C21.1195 17.24 22.3675 17.496 23.7915 17.496C25.2155 17.496 26.4635 17.24 27.5355 16.728C28.6075 16.2 29.4315 15.48 30.0075 14.568C30.5995 13.64 30.8955 12.576 30.8955 11.376C30.8955 10.176 30.5995 9.12 30.0075 8.208C29.4315 7.28 28.6075 6.56 27.5355 6.048C26.4635 5.52 25.2155 5.256 23.7915 5.256C22.3675 5.256 21.1195 5.52 20.0475 6.048C18.9755 6.56 18.1435 7.28 17.5515 8.208C16.9755 9.12 16.6875 10.176 16.6875 11.376C16.6875 12.576 16.9755 13.64 17.5515 14.568C18.1435 15.48 18.9755 16.2 20.0475 16.728ZM25.8075 13.464C25.3115 13.96 24.6395 14.208 23.7915 14.208C22.9435 14.208 22.2635 13.96 21.7515 13.464C21.2555 12.952 21.0075 12.256 21.0075 11.376C21.0075 10.496 21.2555 9.808 21.7515 9.312C22.2635 8.8 22.9435 8.544 23.7915 8.544C24.6395 8.544 25.3115 8.8 25.8075 9.312C26.3195 9.808 26.5755 10.496 26.5755 11.376C26.5755 12.256 26.3195 12.952 25.8075 13.464ZM32.5659 0.36H44.4699V3.936H36.8139V7.08V10.416V13.56H44.4699V17.136H32.5659V0.36ZM48.3334 5.616H44.1094L48.9334 17.136H52.9414L57.7654 5.616H53.5414L50.9494 12.312L48.3334 5.616ZM64.9043 17.496C62.6483 17.496 60.8723 16.968 59.5763 15.912C58.2963 14.856 57.6562 13.36 57.6562 11.424C57.6562 9.52 58.2242 8.016 59.3602 6.912C60.5122 5.808 62.1682 5.256 64.3282 5.256C65.7042 5.256 66.8802 5.52 67.8562 6.048C68.8482 6.56 69.5922 7.272 70.0882 8.184C70.6003 9.08 70.8563 10.096 70.8563 11.232V12.792H61.6642C61.8242 13.432 62.2243 13.896 62.8643 14.184C63.5042 14.472 64.3763 14.616 65.4802 14.616C66.2322 14.616 67.0003 14.552 67.7842 14.424C68.5843 14.296 69.2722 14.12 69.8483 13.896V16.68C69.2562 16.92 68.5123 17.112 67.6162 17.256C66.7363 17.416 65.8323 17.496 64.9043 17.496ZM66.8723 10.152C66.8083 9.528 66.5522 9.04 66.1042 8.688C65.6562 8.336 65.0402 8.16 64.2562 8.16C63.4882 8.16 62.8802 8.344 62.4323 8.712C61.9843 9.064 61.7282 9.544 61.6642 10.152H66.8723ZM76.6069 5.616H72.5269V17.136H76.7509V10.056C77.0549 9.544 77.4309 9.168 77.8789 8.928C78.3269 8.672 78.8229 8.544 79.3669 8.544C80.5509 8.544 81.1429 9.192 81.1429 10.488V17.136H85.3669V9.936C85.3669 8.496 84.9749 7.36 84.1909 6.528C83.4229 5.68 82.2309 5.256 80.6149 5.256C79.8469 5.256 79.1109 5.392 78.4069 5.664C77.7029 5.936 77.1029 6.344 76.6069 6.888V5.616ZM92.4017 17.496C90.9777 17.496 89.8977 17.104 89.1617 16.32C88.4417 15.52 88.0817 14.432 88.0817 13.056V8.544H86.4497V5.616H88.0817V2.16H92.3057V5.616V8.544V12.48C92.3057 13.104 92.4177 13.552 92.6417 13.824C92.8817 14.096 93.2977 14.232 93.8897 14.232C94.4177 14.232 94.9457 14.088 95.4737 13.8V16.944C95.0577 17.136 94.6097 17.272 94.1297 17.352C93.6657 17.448 93.0897 17.496 92.4017 17.496ZM41.3999 9.13599C41.3999 10.2406 40.5045 11.136 39.3999 11.136C38.2953 11.136 37.3999 10.2406 37.3999 9.13599C37.3999 8.03142 38.2953 7.13599 39.3999 7.13599C40.5045 7.13599 41.3999 8.03142 41.3999 9.13599ZM94.8999 9.13599C96.0045 9.13599 96.8999 8.24056 96.8999 7.13599C96.8999 6.03142 96.0045 5.13599 94.8999 5.13599C93.7953 5.13599 92.8999 6.03142 92.8999 7.13599C92.8999 8.24056 93.7953 9.13599 94.8999 9.13599Z" fill="#F5EEED"/>
</svg>
